<?xml version="1.0" standalone="no"?>
<!DOCTYPE svg PUBLIC "-//W3C//DTD SVG 20010904//EN"
 "http://www.w3.org/TR/2001/REC-SVG-20010904/DTD/svg10.dtd">
<svg version="1.0" xmlns="http://www.w3.org/2000/svg"
 width="630.000000pt" height="630.000000pt" viewBox="0 0 630.000000 630.000000"
 preserveAspectRatio="xMidYMid meet">
<metadata>
Created by potrace 1.11, written by Peter Selinger 2001-2013
</metadata>
<g transform="translate(0.000000,630.000000) scale(0.100000,-0.100000)"
fill="#000000" stroke="none">
<path d="M0 3150 l0 -3150 3150 0 3150 0 0 3150 0 3150 -3150 0 -3150 0 0
-3150z m3457 2584 c-3 -3 -12 -4 -19 -1 -8 3 -5 6 6 6 11 1 17 -2 13 -5z
m-597 -13 c0 -6 115 -9 280 -8 153 1 272 -1 262 -4 -14 -5 61 -16 178 -25 14
-1 86 -18 160 -37 123 -32 137 -34 164 -21 16 8 32 12 34 9 3 -3 -1 -5 -9 -6
-9 0 -6 -4 6 -10 19 -9 19 -9 -1 -5 -12 2 -28 0 -35 -5 -10 -6 -9 -8 6 -8 11
1 39 -6 63 -15 24 -9 49 -13 55 -10 7 4 9 3 4 -1 -9 -11 103 -57 121 -50 7 2
10 0 7 -5 -8 -12 35 -29 54 -22 8 3 12 1 8 -5 -7 -11 54 -43 84 -43 11 0 17
-4 14 -10 -3 -5 0 -7 8 -4 8 3 17 -2 21 -11 3 -9 11 -15 18 -14 26 3 39 -1 33
-10 -3 -6 4 -15 15 -21 11 -6 20 -7 20 -3 0 4 6 -1 13 -12 9 -12 19 -15 28
-10 8 5 11 4 6 0 -10 -11 42 -45 59 -38 8 3 14 -2 14 -11 0 -9 5 -16 11 -16 5
0 7 5 3 12 -4 7 -3 8 5 4 6 -4 9 -11 6 -16 -8 -13 45 -45 69 -42 17 2 18 1 6
-7 -21 -15 4 -15 33 0 l22 10 -22 -18 -22 -18 80 -63 c44 -34 85 -60 91 -56 7
4 8 3 4 -4 -4 -7 -3 -12 3 -12 5 0 13 5 16 10 10 16 25 2 18 -16 -4 -11 -8
-12 -13 -4 -5 9 -9 9 -14 1 -4 -6 -3 -11 3 -11 5 0 24 -14 41 -32 19 -18 35
-27 38 -21 8 12 43 13 36 1 -3 -5 -10 -6 -15 -3 -21 13 -1 -36 22 -54 14 -11
38 -38 53 -60 16 -22 32 -38 36 -36 5 3 14 -8 21 -24 7 -16 17 -27 21 -25 5 3
5 10 2 16 -4 7 -2 8 4 4 6 -4 9 -13 5 -21 -8 -21 16 -47 38 -40 9 3 20 1 24
-5 3 -6 11 -7 17 -4 7 4 8 2 4 -5 -6 -9 -11 -9 -21 -1 -23 19 -39 1 -19 -21 9
-10 20 -16 25 -14 4 3 11 0 15 -6 5 -8 3 -9 -6 -4 -8 5 -11 3 -8 -6 3 -8 10
-13 16 -12 6 2 9 -3 6 -11 -3 -8 0 -17 7 -22 7 -4 10 -3 5 4 -4 7 3 9 21 6 26
-5 27 -5 9 15 -17 19 -17 19 1 17 10 -2 19 -8 19 -14 1 -7 3 -13 4 -14 7 -7 6
-47 -1 -42 -4 2 -6 12 -3 22 5 15 4 15 -6 -1 -6 -10 -9 -25 -6 -33 4 -10 1
-13 -7 -9 -6 4 -3 -2 8 -12 11 -10 21 -24 23 -32 3 -13 36 -63 64 -96 9 -11
17 -23 18 -27 0 -5 8 -24 17 -43 13 -27 19 -32 30 -23 10 8 17 8 26 -1 9 -10
8 -11 -4 -6 -10 4 -19 0 -23 -10 -3 -9 -2 -13 4 -10 5 3 8 -3 8 -12 -2 -24 42
-114 64 -134 10 -9 18 -23 18 -30 0 -11 -2 -11 -10 1 -14 22 -12 6 3 -24 8
-14 16 -24 18 -22 2 2 5 -9 5 -26 1 -17 7 -34 15 -39 8 -5 11 -9 6 -9 -4 0 -1
-16 7 -35 8 -19 13 -35 11 -35 -3 0 1 -17 9 -37 8 -21 17 -47 21 -58 4 -11 9
-33 11 -48 2 -16 8 -37 14 -47 5 -10 13 -36 16 -57 3 -21 10 -42 15 -47 12
-13 12 -29 0 -22 -5 3 -4 -16 1 -42 12 -56 31 -83 23 -32 -5 34 -5 34 5 6 5
-17 5 -36 0 -46 -9 -17 -8 -59 2 -75 8 -14 3 -622 -6 -665 -5 -26 -4 -30 3
-15 8 16 10 16 10 4 1 -9 -6 -23 -15 -30 -12 -10 -14 -23 -10 -54 5 -28 3 -36
-4 -25 -7 12 -10 8 -10 -15 0 -16 -11 -75 -24 -130 -14 -54 -22 -103 -20 -107
3 -4 0 -8 -6 -8 -7 0 -9 -7 -6 -17 4 -9 2 -19 -4 -23 -6 -4 -12 -20 -13 -37
-1 -17 -5 -29 -8 -27 -10 5 -28 -66 -22 -84 4 -10 2 -13 -6 -8 -6 4 -10 4 -9
-1 1 -4 -6 -22 -15 -40 -16 -31 -14 -68 4 -57 5 3 6 -2 3 -11 -6 -14 -8 -14
-20 2 -13 17 -14 17 -7 -1 4 -12 3 -17 -4 -13 -11 7 -28 -36 -24 -59 1 -7 -6
-15 -15 -18 -10 -4 -14 -12 -10 -23 4 -10 4 -14 0 -10 -10 9 -55 -84 -47 -96
3 -6 1 -7 -6 -3 -12 8 -32 -33 -23 -48 3 -5 1 -6 -5 -3 -6 4 -15 -5 -22 -19
-9 -21 -8 -32 4 -57 8 -16 15 -31 15 -31 0 -1 -10 -2 -22 -3 -13 0 -17 1 -10
4 6 3 12 9 12 14 0 4 -8 5 -17 2 -16 -6 -16 -5 -4 10 8 10 11 20 8 23 -8 9
-29 -35 -22 -46 4 -6 3 -9 -2 -8 -4 2 -9 -1 -10 -6 -1 -5 -7 -13 -15 -17 -9
-6 -10 -13 -3 -26 6 -10 9 -29 6 -43 l-4 -25 -7 25 -7 25 -12 -29 c-7 -18 -16
-26 -26 -22 -20 7 -57 -42 -50 -68 5 -16 4 -18 -4 -6 -8 12 -14 9 -33 -15 -13
-16 -44 -54 -71 -84 -43 -49 -61 -81 -38 -66 5 3 13 0 17 -6 4 -7 3 -9 -4 -5
-6 3 -13 2 -17 -4 -3 -5 -1 -10 6 -10 21 0 3 -11 -27 -16 l-27 -5 23 19 c19
15 20 20 9 27 -8 5 -11 5 -8 1 4 -4 -17 -30 -45 -59 -28 -29 -50 -55 -48 -59
1 -5 -4 -7 -11 -5 -6 1 -11 -6 -11 -15 1 -10 -2 -15 -7 -12 -11 6 -49 -14 -49
-26 0 -5 6 -7 14 -4 8 3 17 0 21 -5 3 -6 11 -8 17 -5 6 4 8 2 5 -3 -4 -6 -20
-9 -36 -7 -17 2 -34 -3 -41 -11 -7 -8 -17 -12 -22 -9 -11 7 -59 -36 -53 -47 3
-4 1 -10 -5 -14 -6 -4 -8 -11 -4 -16 3 -6 -4 -20 -17 -32 -15 -14 -21 -16 -17
-6 3 9 2 22 -2 30 -7 11 -13 10 -32 -7 -13 -11 -44 -34 -70 -49 -26 -16 -44
-33 -42 -37 3 -5 9 -6 13 -4 4 3 7 -5 7 -17 0 -17 -6 -22 -25 -23 -15 -1 -20
1 -13 3 10 4 10 8 0 21 -12 15 -11 16 5 3 9 -8 20 -11 23 -8 3 3 -3 10 -15 16
-16 9 -22 8 -30 -6 -6 -10 -11 -14 -11 -10 0 5 -5 5 -11 1 -8 -4 -7 -9 2 -16
10 -7 8 -8 -7 -3 -13 3 -26 -1 -34 -10 -7 -8 -19 -15 -26 -15 -17 0 -18 -17
-1 -23 9 -4 9 -6 0 -6 -6 -1 -14 3 -18 9 -6 10 -55 -7 -55 -20 0 -3 -16 -12
-35 -18 -23 -9 -32 -18 -28 -28 3 -9 -1 -14 -13 -12 -42 3 -65 -2 -58 -14 4
-6 3 -8 -4 -5 -15 10 -43 -3 -35 -16 3 -5 1 -7 -5 -3 -12 7 -106 -27 -97 -36
9 -8 -32 -21 -44 -14 -14 9 -42 -5 -34 -17 4 -6 0 -8 -9 -4 -9 3 -58 -8 -109
-24 -106 -34 -101 -33 -224 -55 -49 -9 -99 -23 -110 -30 -11 -8 -24 -14 -30
-14 -5 0 -3 5 5 10 26 17 -18 12 -56 -6 -19 -9 -38 -14 -41 -10 -3 3 2 6 12 6
10 0 16 3 13 6 -9 8 -79 -7 -73 -16 3 -5 0 -12 -6 -16 -7 -4 -9 -3 -5 4 11 18
-22 21 -214 21 -196 -1 -290 6 -405 27 -22 4 -52 7 -67 8 -14 1 -24 4 -21 9 2
4 -6 8 -19 9 -70 4 -145 20 -175 36 -12 7 -29 9 -39 5 -11 -4 -15 -3 -10 5 7
11 -55 29 -83 23 -7 -1 -10 2 -7 7 3 5 -12 14 -34 20 -39 10 -40 9 -35 -15 2
-14 1 -22 -3 -18 -7 7 -8 12 -11 39 -1 15 -80 48 -102 43 -8 -2 -10 -2 -6 1 5
2 -17 17 -48 33 -32 16 -62 26 -68 22 -5 -3 -7 -1 -4 4 7 11 -28 27 -52 23 -8
-1 -10 4 -5 12 4 7 4 10 -1 6 -4 -4 -15 -2 -23 5 -13 10 -14 9 -8 -1 7 -11 4
-11 -13 0 -12 7 -16 15 -10 17 13 4 -88 61 -109 61 -9 0 -13 3 -9 6 5 5 -85
74 -97 74 -3 0 -22 16 -43 34 -30 29 -40 33 -52 23 -12 -10 -13 -9 -7 1 5 8 1
21 -9 32 -18 20 -41 18 -29 -2 4 -7 2 -8 -5 -4 -6 4 -9 11 -6 15 5 9 -32 56
-43 56 -10 1 -48 24 -40 25 4 0 -8 16 -26 36 -22 24 -38 34 -46 29 -8 -5 -11
-4 -7 2 4 6 -4 20 -17 32 -18 17 -25 19 -30 9 -4 -10 -5 -9 -5 2 2 29 -1 40
-12 40 -6 0 -9 -7 -5 -15 3 -8 0 -15 -5 -15 -7 0 -9 9 -6 21 4 14 -4 30 -26
53 -18 19 -42 45 -55 60 -12 15 -26 24 -31 22 -5 -3 -16 3 -25 13 -12 13 -14
21 -6 26 6 4 9 1 8 -7 -2 -7 3 -12 10 -10 8 1 11 -2 6 -9 -5 -8 -3 -9 5 -5 15
10 -17 49 -34 42 -7 -2 -12 2 -12 10 0 7 5 10 11 7 6 -4 5 1 -3 10 -7 9 -17
14 -22 11 -5 -3 -6 1 -3 9 3 8 -3 20 -12 28 -16 12 -17 12 -11 -4 4 -11 3 -16
-4 -12 -5 4 -9 15 -7 25 2 11 -6 26 -17 35 -11 9 -14 13 -7 10 8 -4 2 11 -13
33 -17 25 -32 39 -41 35 -8 -3 -11 -10 -7 -17 3 -6 4 -9 0 -6 -3 3 -5 7 -4 10
0 3 -5 16 -12 30 -11 23 -11 23 2 7 9 -11 18 -14 21 -8 4 5 2 12 -3 15 -4 3
-33 53 -62 110 -44 85 -56 103 -67 93 -21 -17 -57 28 -39 48 13 14 27 11 27
-6 0 -6 -4 -7 -10 -4 -13 8 -13 -6 0 -25 9 -13 11 -13 19 -1 6 9 3 26 -7 48
-14 30 -18 32 -28 18 -10 -13 -12 -12 -12 10 0 13 4 22 9 19 13 -8 12 -3 -16
54 -14 29 -25 59 -25 68 0 8 -5 12 -10 9 -6 -3 -10 4 -10 17 0 13 -3 33 -6 46
-5 19 -9 20 -22 10 -13 -11 -14 -10 -4 9 15 28 15 46 0 37 -8 -5 -9 -2 -5 10
4 9 0 33 -8 53 -8 19 -15 47 -15 62 0 18 -3 22 -9 13 -5 -9 -8 0 -8 26 0 22
-4 46 -9 53 -5 8 -7 25 -6 39 2 16 0 21 -6 13 -5 -8 -8 1 -8 25 0 20 -8 91
-18 157 -12 83 -18 180 -18 318 0 113 -3 197 -9 197 -5 0 -9 8 -9 18 0 15 2
15 11 2 7 -11 8 0 4 38 -5 33 -3 52 3 52 7 0 9 20 6 50 -2 28 0 50 5 50 9 0
35 149 33 198 0 17 3 32 8 32 11 0 20 39 13 57 -5 12 -7 12 -15 1 -8 -10 -9
-10 -5 2 2 8 11 14 19 12 13 -2 27 36 42 110 2 7 8 26 14 41 8 19 9 34 2 47
-15 28 -12 36 6 14 15 -18 15 -18 8 5 -3 13 -2 21 3 18 12 -8 36 59 27 74 -4
8 -3 9 4 5 11 -7 16 7 15 41 -1 7 3 11 7 8 4 -3 11 2 14 11 4 10 2 13 -7 8 -6
-4 -9 -4 -5 1 4 4 3 13 -2 20 -7 8 -5 12 5 12 8 0 12 -4 9 -9 -3 -4 0 -8 5 -8
11 0 13 5 15 33 1 6 9 21 18 31 18 20 22 37 18 66 -1 8 1 12 6 8 4 -4 13 0 20
9 10 15 9 22 -7 44 -10 15 -19 31 -19 36 0 4 5 0 11 -10 6 -9 14 -15 20 -12 5
3 6 -1 3 -9 -3 -9 -1 -16 5 -16 6 0 11 9 11 20 0 11 5 20 10 20 6 0 13 8 17
18 3 9 15 30 27 46 11 16 15 27 9 23 -6 -4 -13 -1 -16 7 -4 9 0 12 11 10 16
-4 72 63 72 85 0 5 5 11 12 13 7 3 8 10 4 17 -7 11 -10 11 -18 0 -6 -10 -7 -7
-3 10 5 17 4 22 -5 16 -9 -6 -11 -4 -5 5 6 10 12 7 26 -11 17 -22 20 -22 19
-4 0 3 12 17 26 30 15 14 24 25 21 25 -4 0 15 23 41 51 26 28 46 57 44 65 -2
8 3 13 10 12 7 -2 12 3 10 10 -1 6 4 12 11 12 8 0 24 11 37 26 21 21 22 27 10
35 -13 9 -12 10 2 6 10 -4 29 8 52 34 20 21 42 39 47 39 6 0 8 7 5 16 -3 8 -2
13 2 10 13 -8 53 24 46 36 -4 6 -2 8 3 5 6 -4 34 16 62 43 29 28 49 44 45 38
-5 -8 0 -7 11 2 42 33 58 50 52 57 -4 3 -7 1 -7 -5 0 -7 -5 -12 -11 -12 -8 0
-9 4 0 13 6 8 7 18 3 23 -4 5 3 0 15 -10 20 -17 23 -17 29 -2 3 9 11 16 16 16
5 0 22 9 36 20 35 27 122 83 172 111 22 12 37 26 34 30 -2 4 1 11 7 15 8 4 9
3 5 -4 -10 -16 -1 -15 34 3 17 9 30 20 30 25 0 6 3 9 8 8 10 -3 81 22 126 44
30 15 36 22 25 29 -10 7 -6 8 11 4 14 -3 49 4 80 15 30 12 82 30 115 40 33 10
80 25 105 33 29 9 39 16 30 20 -8 4 3 5 25 2 31 -5 37 -3 25 5 -12 10 -11 11
8 7 12 -3 53 1 90 10 81 18 97 20 142 22 27 1 31 4 20 11 -11 7 -5 8 19 3 29
-5 33 -4 28 10 -4 10 -2 17 3 17 6 0 10 -4 10 -9z m177 3 c-3 -3 -12 -4 -19
-1 -8 3 -5 6 6 6 11 1 17 -2 13 -5z m510 0 c-3 -3 -12 -4 -19 -1 -8 3 -5 6 6
6 11 1 17 -2 13 -5z m76 -1 c-7 -2 -21 -2 -30 0 -10 3 -4 5 12 5 17 0 24 -2
18 -5z m-948 -13 c-27 -12 -43 -12 -25 0 8 5 22 9 30 9 10 0 8 -3 -5 -9z m798
3 c-7 -2 -19 -2 -25 0 -7 3 -2 5 12 5 14 0 19 -2 13 -5z m204 1 c-3 -3 -12 -4
-19 -1 -8 3 -5 6 6 6 11 1 17 -2 13 -5z m-160 -10 c-3 -3 -12 -4 -19 -1 -8 3
-5 6 6 6 11 1 17 -2 13 -5z m100 0 c-3 -3 -12 -4 -19 -1 -8 3 -5 6 6 6 11 1
17 -2 13 -5z m-950 -20 c-3 -3 -12 -4 -19 -1 -8 3 -5 6 6 6 11 1 17 -2 13 -5z
m980 0 c-3 -3 -12 -4 -19 -1 -8 3 -5 6 6 6 11 1 17 -2 13 -5z m-1297 -34 c8
-5 11 -10 5 -10 -5 0 -17 5 -25 10 -8 5 -10 10 -5 10 6 0 17 -5 25 -10z m50
-25 c7 -8 9 -15 6 -15 -4 0 -14 7 -22 15 -9 8 -11 15 -6 15 5 0 15 -7 22 -15z
m1457 9 c-3 -3 -12 -4 -19 -1 -8 3 -5 6 6 6 11 1 17 -2 13 -5z m-1507 -14 c-8
-5 -19 -10 -25 -10 -5 0 -3 5 5 10 8 5 20 10 25 10 6 0 3 -5 -5 -10z m1734
-52 c-3 -4 -11 -5 -19 -1 -21 7 -19 12 4 10 11 0 18 -5 15 -9z m71 2 c-3 -5
-14 -10 -23 -9 -14 0 -13 2 3 9 27 11 27 11 20 0z m-1992 -17 c-7 -2 -19 -2
-25 0 -7 3 -2 5 12 5 14 0 19 -2 13 -5z m1990 -10 c-7 -2 -19 -2 -25 0 -7 3
-2 5 12 5 14 0 19 -2 13 -5z m-2023 -27 c0 -2 -7 -7 -16 -10 -8 -3 -12 -2 -9
4 6 10 25 14 25 6z m2146 -38 c2 -14 -1 -16 -16 -8 -28 15 -32 27 -8 26 12 -1
22 -9 24 -18z m-2260 -7 c-3 -4 -20 -5 -38 -2 l-33 5 30 6 c32 7 48 3 41 -9z
m-122 -60 c4 -5 -3 -7 -14 -4 -23 6 -26 13 -6 13 8 0 17 -4 20 -9z m-74 -5 c0
-3 -4 -8 -10 -11 -5 -3 -10 -1 -10 4 0 6 5 11 10 11 6 0 10 -2 10 -4z m51 -14
c-7 -2 -18 1 -23 6 -8 8 -4 9 13 5 13 -4 18 -8 10 -11z m-41 -17 c-7 -9 -15
-13 -19 -10 -3 3 1 10 9 15 21 14 24 12 10 -5z m-93 -59 c0 -8 -6 -12 -15 -9
-11 5 -11 7 0 14 7 5 13 9 14 9 0 0 1 -6 1 -14z m2868 4 c-9 -14 8 -12 25 3
12 10 12 9 0 -8 -8 -11 -15 -22 -17 -24 -1 -2 -9 4 -17 12 -12 12 -13 17 -3
20 18 8 19 8 12 -3z m24 -45 c-10 -10 -18 -11 -29 -4 -13 9 -13 10 2 6 9 -4
19 1 22 10 4 9 9 13 13 9 4 -3 0 -13 -8 -21z m91 -51 c0 -8 -5 -12 -10 -9 -6
4 -8 11 -5 16 9 14 15 11 15 -7z m-19 -21 c13 -16 12 -17 -3 -4 -10 7 -18 15
-18 17 0 8 8 3 21 -13z m91 -30 c-6 -2 -9 -10 -6 -15 4 -7 2 -8 -5 -4 -13 9
-5 26 12 25 9 0 8 -2 -1 -6z m-3267 -33 c-3 -5 -12 -10 -18 -10 -7 0 -6 4 3
10 19 12 23 12 15 0z m-45 -25 c0 -8 -4 -15 -10 -15 -5 0 -7 7 -4 15 4 8 8 15
10 15 2 0 4 -7 4 -15z m-80 -22 c0 -1 -8 -7 -18 -12 -13 -7 -19 -6 -19 2 0 7
9 13 19 13 10 0 18 -1 18 -3z m30 -24 c0 -6 -5 -7 -10 -4 -16 10 -40 -14 -33
-33 6 -15 5 -15 -11 -2 -17 13 -17 15 10 37 27 21 44 22 44 2z m-76 -64 c-4
-8 -11 -12 -16 -9 -6 4 -5 10 3 15 19 12 19 11 13 -6z m-24 -27 c0 -6 -7 -5
-15 2 -8 7 -15 17 -15 22 0 6 7 5 15 -2 8 -7 15 -17 15 -22z m3668 -8 c7 -11
11 -20 9 -20 -2 0 -12 9 -22 20 -10 11 -14 20 -9 20 5 0 15 -9 22 -20z m-3724
-47 c3 -7 -1 -10 -10 -6 -17 6 -19 -13 -1 -21 6 -3 1 -3 -12 0 -20 5 -23 3
-19 -14 4 -14 2 -19 -8 -15 -7 2 -10 12 -7 20 5 12 3 14 -7 8 -9 -5 -11 -4 -6
4 4 6 11 9 16 6 4 -3 13 1 19 9 9 11 9 15 -1 19 -7 3 -3 4 9 4 12 -1 25 -7 27
-14z m-122 -115 c-6 -24 -8 -21 -16 22 -6 31 -5 32 7 15 8 -10 12 -27 9 -37z
m28 42 c8 -5 11 -12 8 -16 -4 -3 -14 1 -23 10 -18 17 -9 21 15 6z m40 -14 c0
-2 -8 -10 -17 -17 -16 -13 -17 -12 -4 4 13 16 21 21 21 13z m-40 -31 c0 -8 -4
-15 -10 -15 -5 0 -7 7 -4 15 4 8 8 15 10 15 2 0 4 -7 4 -15z m-29 -29 c11 6
11 4 0 -10 -11 -13 -16 -14 -22 -4 -5 7 -9 18 -9 23 0 6 4 4 9 -4 5 -8 14 -10
22 -5z m-153 -181 c-3 -3 -9 2 -12 12 -6 14 -5 15 5 6 7 -7 10 -15 7 -18z m32
15 c0 -5 -2 -10 -4 -10 -3 0 -8 5 -11 10 -3 6 -1 10 4 10 6 0 11 -4 11 -10z
m4310 -84 c0 -6 5 -4 10 4 5 8 10 10 10 4 0 -5 -7 -19 -16 -30 -8 -10 -12 -13
-9 -6 4 8 -1 19 -10 26 -16 11 -16 13 -1 13 9 0 16 -5 16 -11z m-4410 -74 c0
-5 -7 -9 -15 -9 -8 0 -12 4 -9 9 3 4 9 8 15 8 5 0 9 -4 9 -8z m-102 -177 c-3
-3 -9 2 -12 12 -6 14 -5 15 5 6 7 -7 10 -15 7 -18z m4629 -7 c-3 -8 -6 -5 -6
6 -1 11 2 17 5 13 3 -3 4 -12 1 -19z m33 -2 c0 -3 -4 -8 -10 -11 -5 -3 -10 -1
-10 4 0 6 5 11 10 11 6 0 10 -2 10 -4z m28 -72 c-4 -3 -12 5 -18 18 -12 22
-12 22 6 6 10 -10 15 -20 12 -24z m-4765 -74 c-3 -12 -8 -19 -11 -16 -5 6 5
36 12 36 2 0 2 -9 -1 -20z m4829 -112 c-11 -21 -11 -21 -5 7 6 28 5 29 -13 15
-18 -14 -18 -14 -5 3 20 25 38 5 23 -25z m-4882 -139 c0 -6 -4 -7 -10 -4 -5 3
-10 11 -10 16 0 6 5 7 10 4 6 -3 10 -11 10 -16z m-33 -21 c-3 -8 -6 -5 -6 6
-1 11 2 17 5 13 3 -3 4 -12 1 -19z m4986 -93 c2 -14 3 -25 1 -25 -3 0 -34 61
-34 68 0 15 29 -23 33 -43z m17 30 c0 -8 -2 -15 -4 -15 -2 0 -6 7 -10 15 -3 8
-1 15 4 15 6 0 10 -7 10 -15z m-5023 -67 c-3 -8 -6 -5 -6 6 -1 11 2 17 5 13 3
-3 4 -12 1 -19z m-70 -325 c-3 -10 -5 -4 -5 12 0 17 2 24 5 18 2 -7 2 -21 0
-30z m10 -60 c-3 -10 -5 -4 -5 12 0 17 2 24 5 18 2 -7 2 -21 0 -30z m-10 -100
c-2 -16 -4 -3 -4 27 0 30 2 43 4 28 2 -16 2 -40 0 -55z m20 -285 c-3 -8 -6 -5
-6 6 -1 11 2 17 5 13 3 -3 4 -12 1 -19z m0 -40 c-3 -8 -6 -5 -6 6 -1 11 2 17
5 13 3 -3 4 -12 1 -19z m-7 -38 c0 -5 -5 -10 -11 -10 -5 0 -7 5 -4 10 3 6 8
10 11 10 2 0 4 -4 4 -10z m22 -34 c-6 -48 -12 -46 -12 5 0 22 4 38 8 35 4 -3
6 -21 4 -40z m5030 -302 c-8 -15 -10 -15 -15 0 -4 10 -3 15 3 11 6 -3 11 4 11
17 1 16 3 18 6 6 2 -10 0 -25 -5 -34z m-4988 -68 c-3 -15 -8 -25 -11 -23 -2 3
-1 17 3 31 3 15 8 25 11 23 2 -3 1 -17 -3 -31z m4967 7 c-8 -15 -10 -15 -11
-2 0 17 10 32 18 25 2 -3 -1 -13 -7 -23z m-4934 -65 c-2 -13 -4 -5 -4 17 -1
22 1 32 4 23 2 -10 2 -28 0 -40z m4889 -118 c0 -10 -2 -17 -5 -15 -2 3 -11 -1
-19 -8 -11 -9 -11 -4 2 16 22 32 22 32 22 7z m-4826 -55 c0 -5 -5 -3 -10 5 -5
8 -10 20 -10 25 0 6 5 3 10 -5 5 -8 10 -19 10 -25z m4811 -2 c-12 -20 -14 -14
-5 12 4 9 9 14 11 11 3 -2 0 -13 -6 -23z m29 2 c0 -8 -4 -15 -10 -15 -5 0 -7
7 -4 15 4 8 8 15 10 15 2 0 4 -7 4 -15z m-4863 -27 c-3 -8 -6 -5 -6 6 -1 11 2
17 5 13 3 -3 4 -12 1 -19z m20 -30 c-3 -8 -6 -5 -6 6 -1 11 2 17 5 13 3 -3 4
-12 1 -19z m67 -184 c3 -8 2 -12 -4 -9 -6 3 -10 10 -10 16 0 14 7 11 14 -7z
m4625 -49 c0 -5 -4 -3 -9 5 -5 8 -9 22 -9 30 0 16 17 -16 18 -35z m-4545 -1
c3 -8 2 -12 -4 -9 -6 3 -10 10 -10 16 0 14 7 11 14 -7z m9 -39 c-3 -9 -8 -14
-10 -11 -3 3 -2 9 2 15 9 16 15 13 8 -4z m-2 -78 c-10 -9 -11 -8 -5 6 3 10 9
15 12 12 3 -3 0 -11 -7 -18z m53 4 c4 -5 -1 -8 -9 -7 -21 3 -31 16 -12 16 9 0
18 -4 21 -9z m4404 -46 c-3 -3 -9 2 -12 12 -6 14 -5 15 5 6 7 -7 10 -15 7 -18z
m-4363 -85 c3 -5 1 -10 -4 -10 -6 0 -11 5 -11 10 0 6 2 10 4 10 3 0 8 -4 11
-10z m65 -64 c0 -3 -4 -8 -10 -11 -5 -3 -10 -1 -10 4 0 6 5 11 10 11 6 0 10
-2 10 -4z m4131 -53 c-12 -20 -14 -14 -5 12 4 9 9 14 11 11 3 -2 0 -13 -6 -23z
m59 17 c0 -5 -5 -10 -11 -10 -5 0 -7 5 -4 10 3 6 8 10 11 10 2 0 4 -4 4 -10z
m-60 -69 c-5 -11 -15 -23 -22 -27 -7 -5 -8 -2 -3 7 21 37 44 55 25 20z m-48
-23 c-7 -7 -12 -8 -12 -2 0 14 12 26 19 19 2 -3 -1 -11 -7 -17z m-26 -43 c-1
-29 -3 -33 -12 -20 -14 19 -28 20 -21 0 8 -19 -12 -30 -26 -16 -9 9 -8 11 5 6
11 -5 16 -1 15 12 -1 12 4 17 16 16 11 0 16 4 13 12 -4 11 1 25 9 25 1 0 1
-16 1 -35z m-3771 -155 c3 -5 1 -10 -4 -10 -6 0 -11 5 -11 10 0 6 2 10 4 10 3
0 8 -4 11 -10z m3610 -28 c1 -16 -10 -20 -44 -13 -2 1 4 10 14 21 20 22 28 20
30 -8z m-3620 -2 c3 -5 1 -10 -4 -10 -6 0 -11 5 -11 10 0 6 2 10 4 10 3 0 8
-4 11 -10z m55 6 c0 -2 -8 -10 -17 -17 -16 -13 -17 -12 -4 4 13 16 21 21 21
13z m95 -88 c5 4 5 2 1 -5 -8 -14 -36 -6 -36 9 0 7 5 6 13 -1 8 -6 18 -7 22
-3z m3285 -52 c0 -2 -8 -10 -17 -17 -16 -13 -17 -12 -4 4 13 16 21 21 21 13z
m20 -21 c-7 -8 -16 -15 -21 -15 -5 0 -1 8 9 18 20 22 31 19 12 -3z m-3225 5
c3 -5 1 -10 -4 -10 -6 0 -11 5 -11 10 0 6 2 10 4 10 3 0 8 -4 11 -10z m55 -54
c-1 -5 11 -17 27 -27 27 -18 27 -19 6 -20 -13 -1 -28 -2 -35 -3 -14 -1 -20 32
-6 40 6 4 5 10 -3 16 -11 8 -11 9 -1 6 8 -2 13 -7 12 -12z m3031 -25 c-15 -13
-18 -20 -9 -23 7 -3 -1 -5 -19 -5 l-31 0 31 23 c39 27 58 31 28 5z m69 -11 c0
-5 -5 -10 -11 -10 -5 0 -7 5 -4 10 3 6 8 10 11 10 2 0 4 -4 4 -10z m-2985 -42
c6 -4 2 -8 -7 -8 -10 0 -18 7 -18 17 0 9 3 12 8 7 4 -5 12 -12 17 -16z m-29
-17 c5 -5 18 -11 29 -14 20 -5 19 -5 -1 -6 -11 0 -29 6 -40 14 -10 8 -14 15
-8 15 5 0 14 -4 20 -9z m2754 -71 c0 -5 -7 -10 -16 -10 -8 0 -12 5 -9 10 3 6
10 10 16 10 5 0 9 -4 9 -10z m-2590 -15 c0 -2 -6 -5 -13 -8 -8 -3 -14 1 -14 8
0 7 6 11 14 8 7 -3 13 -6 13 -8z m2510 -10 c-7 -9 -15 -13 -19 -10 -3 3 1 10
9 15 21 14 24 12 10 -5z m-65 -35 c-3 -5 -12 -10 -18 -10 -7 0 -6 4 3 10 19
12 23 12 15 0z m-2285 -30 c8 -5 11 -10 5 -10 -5 0 -17 5 -25 10 -8 5 -10 10
-5 10 6 0 17 -5 25 -10z m2240 -11 c12 -8 10 -9 -7 -4 -13 3 -23 4 -23 0 0 -3
10 -10 23 -15 16 -6 17 -9 5 -9 -9 -1 -20 4 -23 9 -4 6 -12 7 -18 3 -7 -4 -6
0 2 10 16 20 21 20 41 6z m-2182 -8 c11 -6 10 -10 -4 -15 -9 -3 -19 -4 -22 -1
-3 3 1 5 9 5 11 0 11 2 -1 10 -8 5 -10 10 -5 10 6 0 16 -4 23 -9z m-41 -7 c-3
-3 -12 -4 -19 -1 -8 3 -5 6 6 6 11 1 17 -2 13 -5z m2098 -34 c-3 -5 -11 -10
-16 -10 -6 0 -7 5 -4 10 3 6 11 10 16 10 6 0 7 -4 4 -10z m-38 -16 c-3 -3 -12
-4 -19 -1 -8 3 -5 6 6 6 11 1 17 -2 13 -5z m-1820 -29 c0 -17 -13 -20 -21 -6
-4 5 0 12 6 14 7 3 13 6 14 6 0 1 1 -6 1 -14z m1780 -1 c-3 -3 -12 -4 -19 -1
-8 3 -5 6 6 6 11 1 17 -2 13 -5z m-1627 -54 c18 -12 2 -12 -25 0 -13 6 -15 9
-5 9 8 0 22 -4 30 -9z m1443 3 c-13 -2 -33 -2 -45 0 -13 2 -3 4 22 4 25 0 35
-2 23 -4z m-1426 -29 c-3 -3 -12 -4 -19 -1 -8 3 -5 6 6 6 11 1 17 -2 13 -5z
m1400 -10 c-3 -3 -12 -4 -19 -1 -8 3 -5 6 6 6 11 1 17 -2 13 -5z m-1104 -31
c-7 -2 -19 -2 -25 0 -7 3 -2 5 12 5 14 0 19 -2 13 -5z m90 -10 c-7 -2 -19 -2
-25 0 -7 3 -2 5 12 5 14 0 19 -2 13 -5z m44 -9 c-3 -3 -12 -4 -19 -1 -8 3 -5
6 6 6 11 1 17 -2 13 -5z m150 0 c-3 -3 -12 -4 -19 -1 -8 3 -5 6 6 6 11 1 17
-2 13 -5z m270 0 c-3 -3 -12 -4 -19 -1 -8 3 -5 6 6 6 11 1 17 -2 13 -5z m-539
-11 c-10 -2 -26 -2 -35 0 -10 3 -2 5 17 5 19 0 27 -2 18 -5z m65 0 c-7 -2 -19
-2 -25 0 -7 3 -2 5 12 5 14 0 19 -2 13 -5z m600 0 c-7 -2 -19 -2 -25 0 -7 3
-2 5 12 5 14 0 19 -2 13 -5z m-540 -20 c-7 -2 -21 -2 -30 0 -10 3 -4 5 12 5
17 0 24 -2 18 -5z m334 1 c-3 -3 -12 -4 -19 -1 -8 3 -5 6 6 6 11 1 17 -2 13
-5z"/>
<path d="M3080 5287 c-3 -3 -37 -7 -75 -8 -87 -2 -250 -26 -276 -40 -11 -5
-23 -8 -27 -5 -9 5 -87 -10 -117 -23 -30 -13 -109 -35 -118 -33 -5 2 -5 -2 -2
-9 5 -6 0 -10 -11 -8 -26 4 -74 -9 -74 -21 0 -5 -7 -6 -17 -3 -12 5 -14 3 -8
-7 6 -10 3 -12 -12 -8 -25 7 -56 -9 -47 -24 5 -8 1 -9 -11 -4 -11 4 -26 0 -38
-11 -11 -10 -17 -12 -13 -6 5 9 2 11 -8 7 -9 -3 -14 -9 -11 -14 2 -4 -15 -13
-38 -20 -23 -7 -55 -22 -72 -34 -16 -11 -32 -20 -35 -18 -3 1 -5 -3 -5 -10 0
-6 -6 -13 -14 -16 -9 -3 -11 0 -6 8 5 8 -3 5 -17 -6 -14 -10 -24 -23 -21 -27
3 -5 -1 -8 -8 -6 -8 1 -21 1 -29 0 -12 -1 -12 -3 -2 -10 10 -6 9 -11 -4 -22
-12 -9 -15 -10 -10 -1 13 21 -9 13 -70 -26 -74 -48 -93 -70 -74 -82 8 -5 19
-6 25 -3 5 3 5 0 -2 -7 -10 -11 -15 -11 -27 -1 -17 14 -27 10 -76 -32 -28 -24
-30 -30 -19 -44 13 -15 12 -15 -7 -5 -18 10 -29 3 -92 -61 -40 -40 -72 -77
-72 -83 0 -6 -22 -30 -50 -53 -28 -23 -50 -49 -50 -57 0 -8 -5 -14 -10 -14 -7
0 -7 -6 0 -19 15 -28 12 -38 -4 -16 -13 18 -15 16 -39 -21 -14 -21 -35 -50
-46 -64 -11 -13 -17 -28 -15 -32 3 -4 0 -8 -6 -8 -6 0 -8 -5 -5 -10 9 -15 27
-1 21 17 -4 9 -2 11 6 7 7 -5 8 -2 3 7 -5 8 -4 11 0 7 5 -5 10 -20 11 -35 2
-18 0 -23 -5 -14 -6 9 -10 10 -16 2 -4 -7 -2 -18 5 -26 9 -11 7 -13 -7 -11
-11 2 -17 10 -15 21 2 11 -2 15 -10 13 -7 -3 -11 -14 -10 -24 2 -10 1 -16 -4
-12 -13 14 -33 -25 -23 -44 6 -11 6 -25 1 -34 -8 -15 -10 -15 -15 0 -4 10 -3
15 3 11 6 -3 10 -2 10 4 0 29 -20 13 -45 -37 -16 -31 -29 -59 -30 -62 0 -3
-11 -24 -24 -48 -18 -35 -20 -46 -10 -58 10 -12 9 -13 -4 -9 -11 5 -19 -6 -32
-39 -9 -24 -14 -50 -10 -57 6 -8 4 -10 -5 -4 -8 5 -11 3 -8 -6 3 -8 -2 -20 -9
-28 -9 -8 -12 -23 -8 -38 3 -14 2 -22 -4 -19 -8 6 -27 -59 -22 -78 1 -5 -3
-13 -10 -17 -7 -4 -12 -28 -12 -54 0 -30 -3 -41 -10 -33 -5 9 -7 2 -3 -19 3
-17 2 -33 -3 -35 -4 -2 -11 -22 -15 -45 -5 -37 -4 -42 11 -36 13 5 15 2 10
-11 -4 -10 -7 -21 -7 -24 0 -4 -4 -1 -9 7 -17 27 -25 -59 -24 -249 1 -102 3
-201 5 -220 3 -19 5 -50 6 -68 1 -22 6 -31 13 -26 9 5 10 -4 5 -31 -4 -22 -4
-35 2 -31 5 3 8 -5 7 -19 -3 -22 10 -91 22 -125 4 -8 8 -26 10 -40 2 -14 11
-35 19 -47 8 -12 14 -33 14 -47 0 -14 5 -28 10 -31 6 -4 8 -11 5 -16 -4 -5 2
-9 12 -9 12 0 14 -3 6 -8 -10 -6 -9 -14 1 -34 8 -15 12 -29 8 -32 -10 -10 13
-6 26 4 7 5 6 3 -2 -6 -12 -14 -11 -23 7 -64 11 -27 24 -47 29 -44 4 3 5 -1 2
-9 -3 -8 1 -21 8 -28 7 -8 14 -21 16 -29 2 -8 8 -17 13 -18 5 -2 7 -8 3 -13
-3 -5 -1 -9 5 -9 14 0 20 23 10 42 -6 12 -5 16 6 14 26 -4 28 -14 7 -43 -18
-25 -18 -31 -6 -48 8 -11 17 -18 19 -15 2 3 7 1 12 -4 5 -5 3 -6 -4 -2 -20 11
-15 -5 10 -32 12 -14 15 -22 7 -18 -9 5 -8 2 2 -7 10 -8 14 -18 10 -23 -4 -4
1 -2 10 5 10 7 15 17 12 22 -9 16 3 10 17 -8 8 -9 9 -14 3 -10 -16 9 -23 -13
-13 -40 6 -18 15 -22 38 -19 21 2 28 0 24 -10 -3 -8 -9 -12 -13 -9 -4 3 -10
-2 -14 -10 -3 -8 0 -17 6 -21 7 -4 8 -3 4 4 -4 7 -5 12 -2 12 2 0 14 -20 26
-45 12 -24 34 -55 50 -69 16 -13 27 -26 24 -28 -2 -3 3 -11 13 -19 14 -12 16
-12 8 0 -5 10 -4 12 4 7 6 -4 9 -11 6 -16 -6 -10 33 -50 49 -50 5 0 7 -3 4 -6
-9 -8 53 -65 63 -58 5 3 6 -2 3 -10 -3 -9 3 -19 18 -27 22 -12 22 -11 8 6 -8
10 -10 16 -3 12 6 -4 14 -1 17 5 3 7 3 -1 0 -19 -3 -24 1 -35 13 -42 10 -5 38
-27 62 -50 24 -22 47 -39 50 -37 9 6 31 -21 23 -28 -3 -4 2 -4 12 0 15 6 17 4
11 -6 -6 -10 -4 -12 9 -7 9 4 15 3 12 -2 -7 -10 49 -55 91 -73 15 -7 39 -22
52 -35 13 -12 27 -21 31 -18 4 3 10 -2 14 -10 3 -9 12 -12 22 -8 12 4 15 3 10
-5 -5 -8 -1 -10 10 -5 10 4 15 2 11 -3 -3 -6 18 -22 48 -37 44 -22 53 -23 48
-10 -6 15 -5 16 9 3 9 -8 14 -18 12 -21 -7 -13 42 -27 60 -17 10 5 20 7 23 4
4 -3 1 -6 -5 -6 -7 0 -12 -5 -12 -11 0 -5 5 -7 10 -4 6 3 10 2 10 -2 0 -5 14
-14 30 -20 19 -7 28 -8 24 -1 -4 5 4 3 17 -5 15 -9 32 -12 44 -7 27 10 68 -9
55 -25 -9 -11 -8 -12 33 -16 6 -1 21 2 32 6 l20 8 -20 -17 c-14 -12 -16 -16
-5 -15 8 2 35 -3 59 -10 25 -7 56 -14 70 -16 14 -2 26 -5 26 -6 0 -1 9 -3 20
-5 11 -2 38 -7 60 -13 42 -11 59 -6 35 9 -11 7 -11 10 -2 10 7 0 15 -6 18 -13
3 -8 10 -14 17 -14 7 0 41 -6 77 -12 72 -12 402 -15 414 -4 4 4 35 9 68 10 53
2 187 24 241 39 9 3 14 10 11 16 -4 6 2 6 15 -1 11 -7 21 -8 21 -4 0 4 14 9
31 10 33 2 65 33 47 44 -5 4 -3 9 7 12 10 4 14 3 9 -4 -8 -14 33 -2 61 17 11
8 26 14 34 14 8 0 -13 -14 -47 -32 -34 -18 -60 -33 -59 -35 6 -5 77 21 77 28
0 5 7 5 17 2 11 -5 14 -3 8 6 -6 10 -2 11 15 6 17 -5 21 -4 15 6 -6 9 -3 11 9
6 14 -6 17 -3 12 9 -5 14 -4 15 8 5 12 -10 22 -8 53 8 21 11 53 26 70 33 18 7
33 17 33 21 0 5 -5 5 -12 1 -7 -5 -8 -3 -3 5 5 9 10 10 18 2 15 -15 30 -14 21
1 -4 7 -3 8 4 4 15 -9 73 24 65 38 -4 5 1 7 10 3 19 -7 32 8 16 19 -8 4 -9 3
-5 -4 5 -8 1 -10 -10 -5 -11 4 -13 8 -6 11 7 2 9 8 6 14 -4 5 5 2 19 -7 27
-17 53 -12 41 7 -4 7 -2 8 5 4 14 -9 43 12 36 24 -3 5 0 12 6 16 8 4 9 3 5 -4
-4 -7 -2 -12 4 -12 6 0 13 7 17 16 3 8 11 13 19 10 7 -3 18 3 26 12 11 13 11
14 -1 7 -10 -6 -12 -4 -7 4 5 7 14 10 22 7 7 -3 18 3 23 12 5 9 13 17 18 17 4
0 8 6 9 13 1 6 -2 10 -7 6 -5 -3 -7 -10 -4 -15 3 -5 -2 -6 -11 -2 -15 6 -15 7
-1 18 9 7 13 16 9 20 -4 4 5 0 19 -9 27 -17 46 -11 28 10 -8 9 -6 11 9 7 12
-3 33 8 58 29 60 51 305 301 299 306 -2 2 5 12 17 22 16 13 18 19 8 25 -9 6
-11 4 -5 -4 4 -8 -2 -7 -17 3 -14 9 -28 13 -33 9 -4 -5 -5 -2 -1 5 5 9 12 9
27 2 13 -7 19 -7 19 0 0 5 5 10 11 10 5 0 7 -5 4 -10 -10 -17 12 -11 26 7 8 9
9 14 3 10 -7 -4 -11 2 -10 15 1 12 9 22 19 24 9 1 15 -2 11 -7 -3 -5 -10 -7
-15 -4 -5 4 -9 1 -9 -4 0 -14 13 -14 28 1 9 9 8 16 -6 32 -13 16 -13 18 -1 9
13 -10 20 -9 37 8 12 11 22 29 22 40 0 13 4 18 13 13 9 -6 9 -4 -1 8 -10 13
-10 18 -1 24 8 5 9 3 4 -6 -5 -9 -4 -11 4 -6 6 4 9 16 6 27 -6 19 10 28 17 10
2 -6 18 17 36 50 18 33 28 57 22 54 -5 -3 -10 -1 -10 4 0 6 3 11 8 11 8 0 57
75 57 88 1 4 6 16 12 28 7 12 8 25 2 35 -12 19 -11 29 2 29 5 0 7 -5 4 -10 -3
-5 -1 -10 4 -10 6 0 12 8 12 18 2 22 2 24 -6 47 -7 20 -6 20 9 1 16 -20 16
-20 17 0 1 10 1 23 0 27 -1 4 6 15 14 24 9 8 14 22 10 31 -3 8 2 23 11 33 9
10 17 36 18 58 0 22 5 37 10 34 5 -4 7 3 4 15 -4 12 -2 22 3 22 5 0 9 12 9 26
0 14 4 33 9 42 5 9 11 37 14 62 4 25 11 80 16 123 6 43 10 81 9 85 -1 4 2 41
6 83 6 59 4 86 -8 123 -18 54 -20 67 -6 46 13 -18 9 68 -4 88 -4 6 -5 16 -2
21 7 10 -20 183 -36 231 -6 19 -18 41 -27 48 -15 11 -14 12 1 6 14 -5 15 -1 6
35 -6 22 -14 39 -18 36 -4 -3 -11 2 -14 11 -9 24 -7 31 5 14 13 -19 12 -13
-21 82 -20 57 -26 66 -38 55 -13 -10 -14 -9 -4 10 10 17 8 30 -8 68 -11 26
-30 61 -43 79 -12 17 -20 32 -18 34 7 6 -22 61 -30 56 -5 -3 -7 1 -4 8 3 7 -6
25 -20 41 -15 15 -24 31 -21 35 2 4 -4 19 -15 32 -16 21 -18 22 -13 5 5 -18 4
-18 -6 -2 -6 9 -9 21 -6 26 3 4 -2 17 -10 27 -9 10 -13 14 -10 9 2 -6 -3 -11
-13 -12 -10 -1 -25 12 -35 30 l-17 32 24 -28 c20 -24 25 -26 30 -13 4 10 1 19
-8 22 -8 4 -15 11 -15 16 0 18 -76 107 -86 100 -5 -4 -11 -16 -12 -27 -3 -16
-1 -18 9 -7 7 6 17 12 22 12 5 0 1 -7 -8 -16 -9 -10 -14 -26 -11 -37 3 -12 1
-16 -4 -11 -14 14 -19 77 -8 91 7 9 -1 25 -26 55 -20 23 -36 46 -36 50 0 5 -4
7 -9 3 -5 -3 -12 4 -16 15 -6 18 -17 24 -37 21 -4 0 -5 5 -2 12 6 17 -65 79
-79 70 -6 -3 -7 -1 -3 5 7 11 -86 92 -105 92 -6 0 -8 4 -5 9 7 11 -22 23 -35
16 -5 -4 -6 1 -2 11 5 13 2 15 -14 10 -13 -4 -26 1 -39 16 l-19 23 23 -19 c12
-11 24 -17 27 -14 8 7 -119 93 -134 90 -7 -2 -10 1 -7 6 3 5 -6 14 -20 21 -37
16 -42 13 -14 -9 24 -19 24 -19 3 -13 -13 3 -24 9 -24 14 -1 5 -2 15 -3 22 -1
7 -12 11 -26 9 -18 -1 -21 0 -11 7 11 7 -10 21 -78 55 -105 52 -121 57 -71 22
19 -13 39 -21 44 -18 5 3 6 0 2 -6 -8 -13 -75 23 -83 44 -5 15 -180 85 -221
89 -15 2 -44 10 -64 19 -43 18 -52 20 -43 7 3 -5 0 -13 -6 -17 -8 -4 -9 -3 -5
4 8 13 -16 28 -59 36 -16 3 -64 13 -105 22 -41 8 -93 13 -114 10 -27 -3 -35
-2 -25 5 9 6 -5 9 -46 8 -33 -1 -100 2 -150 6 -49 4 -92 5 -95 2z m473 -54
c-7 -2 -19 -2 -25 0 -7 3 -2 5 12 5 14 0 19 -2 13 -5z m-808 -13 c-22 -4 -46
-5 -52 -1 -7 4 11 7 40 8 51 1 51 1 12 -7z m-88 -6 c-3 -3 -12 -4 -19 -1 -8 3
-5 6 6 6 11 1 17 -2 13 -5z m949 -19 c1 -9 -4 -11 -14 -7 -10 4 -12 7 -4 10 7
2 9 9 5 15 -3 7 -2 8 2 4 5 -4 10 -14 11 -22z m44 5 c-12 -8 -12 -10 -1 -10 8
0 12 -2 9 -5 -3 -3 -13 -2 -22 1 -14 5 -15 9 -4 15 7 5 18 9 23 9 6 0 3 -5 -5
-10z m-1002 -7 c-10 -2 -28 -2 -40 0 -13 2 -5 4 17 4 22 1 32 -1 23 -4z m-201
-49 c-3 -3 -12 -4 -19 -1 -8 3 -5 6 6 6 11 1 17 -2 13 -5z m1443 2 c0 -2 -7
-7 -16 -10 -8 -3 -12 -2 -9 4 6 10 25 14 25 6z m-1483 -21 c0 -8 -4 -12 -9 -9
-5 3 -6 10 -3 15 9 13 12 11 12 -6z m1563 -21 c0 -2 -13 2 -30 11 -16 9 -30
18 -30 21 0 2 14 -2 30 -11 17 -9 30 -18 30 -21z m-1493 10 c-3 -3 -12 -4 -19
-1 -8 3 -5 6 6 6 11 1 17 -2 13 -5z m1583 -69 c0 -1 -9 -5 -19 -8 -13 -3 -18
-1 -14 9 4 10 33 10 33 -1z m-1846 -14 c4 -5 -3 -7 -14 -4 -23 6 -26 13 -6 13
8 0 17 -4 20 -9z m1962 -31 c0 -12 -4 -16 -9 -11 -5 5 -6 14 -3 20 10 15 12
14 12 -9z m-2051 -10 c-3 -5 -11 -10 -16 -10 -6 0 -7 5 -4 10 3 6 11 10 16 10
6 0 7 -4 4 -10z m2080 -30 c-27 -12 -43 -12 -25 0 8 5 22 9 30 9 10 0 8 -3 -5
-9z m130 -39 c3 -5 2 -12 -3 -15 -5 -3 -9 1 -9 9 0 17 3 19 12 6z m-2340 -20
c-3 -6 -11 -11 -16 -11 -5 0 -4 6 3 14 14 16 24 13 13 -3z m-82 -24 c3 -7 -3
-13 -14 -13 -13 0 -15 3 -7 13 6 7 12 13 13 13 2 0 5 -6 8 -13z m2467 9 c0 -2
-7 -7 -16 -10 -8 -3 -12 -2 -9 4 6 10 25 14 25 6z m50 -68 c0 -6 -6 -5 -15 2
-8 7 -15 14 -15 16 0 2 7 1 15 -2 8 -4 15 -11 15 -16z m45 -8 c-3 -5 -12 -10
-18 -10 -7 0 -6 4 3 10 19 12 23 12 15 0z m-35 -15 c0 -1 -8 -5 -18 -7 -11 -3
-19 0 -19 7 0 7 8 10 19 7 10 -2 18 -6 18 -7z m75 -15 c3 -6 -1 -7 -9 -4 -18
7 -21 14 -7 14 6 0 13 -4 16 -10z m-1658 -6 c-3 -3 -12 -4 -19 -1 -8 3 -5 6 6
6 11 1 17 -2 13 -5z m408 -4 c-2 -3 13 -7 33 -8 46 -2 110 -9 137 -16 93 -22
118 -25 127 -20 7 5 8 2 3 -6 -6 -9 -2 -10 16 -5 13 4 21 4 16 -1 -4 -4 10
-13 30 -20 25 -9 39 -10 44 -3 4 7 9 4 12 -5 4 -9 18 -16 32 -16 14 0 25 -5
25 -11 0 -8 5 -7 15 1 13 11 13 15 3 21 -7 5 -10 9 -6 9 3 0 15 3 25 6 15 5
15 4 3 -5 -13 -9 -12 -11 5 -11 18 -1 17 -2 -4 -11 -19 -8 -21 -12 -11 -24 7
-8 17 -12 22 -9 6 4 5 10 -3 15 -16 10 -8 12 15 3 9 -3 12 -12 8 -22 -5 -15
-4 -15 11 -3 15 12 17 12 12 -1 -4 -9 4 -19 20 -26 15 -7 24 -8 20 -2 -3 6 1
7 9 4 9 -3 13 -11 9 -18 -3 -6 2 -3 13 6 13 12 24 14 34 8 13 -9 13 -10 0 -11
-8 -1 -18 -1 -22 0 -16 2 -7 -15 12 -27 12 -7 26 -10 32 -6 7 4 8 3 4 -4 -10
-16 6 -15 24 1 12 10 12 9 2 -4 -10 -14 -8 -19 13 -33 14 -9 25 -12 25 -6 0 5
-4 10 -10 10 -5 0 -10 5 -10 10 0 20 20 9 26 -15 8 -34 57 -63 102 -59 25 2
31 0 22 -6 -8 -5 -24 -7 -35 -3 -18 5 -18 4 -6 -11 8 -9 16 -14 19 -12 2 3 13
-6 24 -19 12 -15 25 -22 35 -18 12 5 15 2 10 -10 -4 -10 -2 -16 6 -14 7 1 11
-2 11 -8 -1 -5 12 -21 30 -35 21 -17 26 -19 16 -5 -14 17 -13 18 4 12 16 -6
17 -5 6 8 -10 11 -15 13 -20 4 -5 -7 -10 -8 -14 -1 -3 6 3 14 15 17 17 6 19 9
8 16 -9 5 -3 7 16 5 25 -3 30 -8 31 -32 2 -28 2 -28 -8 -6 -6 12 -15 22 -21
22 -5 0 -4 -6 2 -14 6 -7 9 -21 5 -30 -6 -16 27 -70 70 -111 14 -14 18 -15 14
-4 -3 9 -2 22 4 30 8 11 9 10 4 -3 -3 -10 -1 -18 5 -18 6 0 6 -8 -1 -21 -10
-17 -8 -21 9 -26 12 -3 21 -13 21 -23 0 -9 11 -29 25 -44 13 -14 21 -26 17
-26 -4 0 -2 -4 3 -8 6 -4 16 -18 23 -32 30 -59 59 -100 67 -93 4 5 5 3 2 -3
-4 -6 4 -33 17 -60 13 -27 26 -57 30 -67 3 -11 11 -15 18 -11 8 5 9 9 1 11 -8
3 -8 14 -2 35 12 45 14 43 14 -22 0 -32 -3 -53 -7 -47 -12 19 -9 5 8 -46 9
-26 19 -47 24 -47 4 0 11 -7 14 -16 3 -8 2 -12 -4 -9 -6 3 -10 2 -10 -4 0 -5
4 -12 10 -16 5 -3 6 -13 3 -22 -4 -11 -3 -14 5 -9 8 5 10 2 6 -9 -4 -8 -1 -21
5 -29 6 -7 8 -22 4 -31 -3 -10 -2 -16 3 -13 5 4 10 -6 10 -20 4 -74 17 -167
25 -170 4 -2 5 -10 2 -18 -3 -9 2 -14 13 -15 18 -1 18 -2 1 -6 -12 -3 -17 -12
-15 -26 l3 -22 -449 -3 c-349 -2 -452 1 -464 10 -13 11 -15 10 -9 -4 3 -10 3
-18 -2 -18 -5 0 -11 -9 -14 -20 -3 -11 -11 -20 -19 -20 -9 0 -10 2 -1 8 6 4
15 20 18 35 4 15 11 30 16 33 5 3 9 11 9 17 0 7 -4 6 -10 -3 -6 -9 -10 -10
-10 -3 0 6 -3 20 -6 30 -5 15 -4 16 6 3 10 -13 11 -12 6 3 -3 10 -6 24 -6 31
0 7 -11 29 -24 49 -13 19 -21 39 -18 43 4 4 0 3 -8 -1 -24 -14 -49 -13 -43 2
4 10 9 11 18 3 9 -8 14 -7 18 3 5 14 -29 70 -74 124 -26 30 -53 34 -42 6 5
-13 2 -12 -14 3 -19 18 -21 50 -2 38 5 -3 6 -10 3 -16 -5 -7 -2 -8 5 -3 14 8
-15 44 -64 78 -16 11 -25 14 -18 7 6 -7 9 -19 6 -27 -3 -7 3 -23 12 -33 10
-11 14 -20 8 -20 -13 0 -37 46 -29 58 14 23 -96 98 -127 86 -8 -3 -18 -1 -22
5 -3 7 0 8 9 5 9 -3 16 -4 16 -1 0 13 -145 47 -227 53 -98 7 -150 -1 -103 -17
l25 -9 -25 4 c-14 3 -35 8 -47 11 -15 5 -23 3 -23 -4 0 -6 7 -11 15 -11 8 0
15 -4 15 -9 0 -5 -9 -7 -20 -4 -11 3 -20 9 -20 14 0 5 -10 9 -22 8 -22 0 -22
-1 -3 -10 17 -8 15 -9 -9 -5 -30 4 -148 -42 -161 -63 -3 -6 -11 -9 -16 -6 -8
6 -13 -9 -10 -29 1 -5 -5 -4 -13 3 -12 10 -16 9 -25 -6 -6 -10 -11 -14 -11 -9
0 13 -40 -25 -40 -37 0 -6 6 -3 13 6 10 15 12 13 12 -15 0 -27 -4 -33 -23 -35
-22 -1 -22 0 -5 14 16 13 16 14 1 9 -12 -4 -16 0 -12 12 5 14 4 15 -4 2 -6 -8
-31 -36 -56 -63 -47 -49 -121 -181 -111 -197 4 -6 1 -10 -4 -10 -6 0 -10 -3
-9 -7 0 -5 -1 -15 -5 -23 -22 -60 -26 -84 -16 -96 9 -11 8 -14 0 -14 -6 0 -14
7 -17 15 -5 12 -69 14 -441 15 -240 0 -440 3 -445 6 -5 4 -7 22 -3 41 4 22 2
40 -7 51 -10 12 -10 14 0 8 8 -5 12 0 13 16 1 34 4 55 23 142 9 43 14 88 11
100 -5 16 -4 17 4 7 7 -11 11 -5 16 25 3 21 11 49 16 62 5 13 6 28 3 34 -4 6
-3 8 3 5 9 -6 39 54 34 69 -2 4 1 10 6 13 17 12 63 113 56 123 -3 6 -2 8 4 5
6 -4 15 5 22 19 6 14 7 23 3 20 -5 -3 -7 7 -4 22 5 23 6 24 12 7 7 -19 8 -18
19 4 11 19 11 22 -1 15 -7 -4 4 10 25 31 24 26 37 49 37 67 0 15 4 29 9 32 5
4 7 -4 4 -16 -5 -21 -2 -20 21 7 14 17 25 34 26 39 0 6 -6 2 -13 -9 -11 -14
-16 -15 -22 -5 -5 9 -4 11 3 6 16 -9 15 7 0 22 -9 9 -6 11 10 7 12 -2 27 -7
32 -10 6 -3 10 -1 10 4 0 13 141 155 193 195 32 24 35 31 25 44 -10 12 -10 14
-1 9 7 -5 18 1 25 13 7 11 16 20 21 20 4 0 0 -12 -10 -27 l-17 -28 25 21 c13
11 47 36 76 54 29 18 50 37 46 43 -3 6 -1 7 5 3 7 -4 30 4 53 17 26 16 36 27
27 30 -8 3 -6 6 7 7 11 1 25 3 30 5 6 1 18 3 28 3 10 1 15 6 12 12 -3 6 1 7 9
4 9 -3 16 -1 16 5 0 6 -5 11 -12 11 -6 0 -8 3 -5 6 4 4 12 2 19 -4 14 -11 53
9 41 21 -11 11 -25 8 -17 -4 4 -8 0 -8 -15 0 -12 7 -26 9 -31 6 -6 -3 -10 -4
-10 -1 0 3 10 10 21 17 15 8 19 8 15 0 -4 -6 -4 -11 -1 -11 4 0 16 5 27 11 12
6 18 7 14 1 -3 -5 1 -15 9 -22 10 -8 15 -9 15 -2 0 7 7 9 17 5 11 -4 14 -3 9
5 -5 8 -1 11 11 10 36 -3 48 2 58 24 6 12 17 24 25 26 9 3 7 -2 -5 -11 -11 -8
-17 -19 -13 -23 4 -4 14 -2 21 4 8 7 17 9 20 5 4 -3 17 5 28 18 17 18 21 20
15 5 -5 -14 -3 -17 11 -11 10 4 41 11 68 16 28 5 61 12 75 15 14 2 84 7 155
11 72 3 131 7 133 8 6 5 60 0 57 -5z m-1520 -30 c-10 -11 -21 -18 -23 -15 -6
6 31 44 37 39 2 -2 -4 -13 -14 -24z m1855 26 c0 -2 -7 -7 -16 -10 -8 -3 -12
-2 -9 4 6 10 25 14 25 6z m985 -57 c-4 -5 -11 -9 -16 -9 -6 0 -7 5 -4 10 4 6
-4 20 -17 31 -21 19 -20 19 10 -1 18 -12 30 -26 27 -31z m-1078 35 c-3 -3 -12
-4 -19 -1 -8 3 -5 6 6 6 11 1 17 -2 13 -5z m1028 -24 c3 -5 1 -10 -4 -10 -6 0
-11 5 -11 10 0 6 2 10 4 10 3 0 8 -4 11 -10z m-2865 -39 c-7 -14 -7 -22 1 -26
5 -4 8 -12 6 -18 -5 -15 -44 -16 -44 0 0 16 9 17 25 1 9 -9 12 -9 12 0 0 7 -6
15 -14 18 -12 5 -12 9 2 25 21 24 26 24 12 0z m2165 -11 c3 -6 -1 -7 -9 -4
-18 7 -21 14 -7 14 6 0 13 -4 16 -10z m835 -31 c0 -5 -5 -9 -12 -9 -6 0 -8 3
-5 7 4 3 1 13 -6 22 -11 14 -10 14 6 2 9 -7 17 -17 17 -22z m-3050 -2 c0 -2
-10 -12 -22 -23 l-23 -19 19 23 c18 21 26 27 26 19z m761 -33 c8 4 6 1 -3 -7
-10 -8 -15 -17 -11 -21 4 -4 -1 -4 -11 0 -15 6 -17 4 -11 -7 5 -8 4 -11 0 -6
-15 13 -14 36 1 30 10 -4 13 0 8 13 -4 14 -3 16 4 5 5 -7 16 -10 23 -7z m-791
-29 c18 -22 -3 -46 -22 -26 -11 10 -9 11 6 5 14 -5 17 -3 14 7 -3 8 -12 13
-21 13 -9 -1 -14 2 -11 7 8 13 20 11 34 -6z m3165 -25 c-3 -5 3 -18 15 -30 11
-11 17 -20 12 -20 -14 0 -60 59 -48 63 15 6 28 -2 21 -13z m-2495 -20 c8 -5
11 -10 5 -10 -5 0 -17 5 -25 10 -8 5 -10 10 -5 10 6 0 17 -5 25 -10z m-10 -20
c11 -8 7 -9 -15 -4 -37 8 -45 14 -19 14 10 0 26 -5 34 -10z m-748 -23 c-28
-29 -62 -34 -36 -6 9 10 20 16 25 14 4 -3 10 -1 14 5 3 5 9 10 12 10 4 0 -3
-10 -15 -23z m608 -42 c11 -13 10 -14 -4 -9 -12 4 -15 2 -10 -9 3 -8 1 -17 -4
-21 -5 -3 -7 5 -6 17 1 12 3 25 3 30 1 11 7 9 21 -8z m2121 2 c-4 -4 -18 -3
-32 2 -23 9 -22 9 8 8 18 -1 28 -6 24 -10z m-2121 -52 c-18 -18 -36 -33 -41
-32 -4 1 -14 -7 -23 -18 -15 -20 -15 -20 -11 3 3 18 0 22 -10 18 -8 -3 -17 -1
-19 3 -3 5 12 7 34 6 31 -2 44 3 66 26 15 16 30 29 33 29 3 0 -10 -16 -29 -35z
m2744 20 c-4 -8 -11 -15 -16 -15 -6 0 -5 6 2 15 7 8 14 15 16 15 2 0 1 -7 -2
-15z m-625 -9 c7 -8 8 -17 3 -20 -6 -3 -12 3 -15 14 -6 24 -4 25 12 6z m-2809
-6 c0 -5 -5 -10 -11 -10 -5 0 -7 5 -4 10 3 6 8 10 11 10 2 0 4 -4 4 -10z
m3465 0 c3 -6 -1 -7 -9 -4 -18 7 -21 14 -7 14 6 0 13 -4 16 -10z m-3485 -35
c0 -18 -39 -59 -48 -51 -3 4 4 13 16 22 12 8 22 22 22 30 0 8 2 14 5 14 3 0 5
-7 5 -15z m30 0 c0 -8 -4 -15 -10 -15 -5 0 -7 7 -4 15 4 8 8 15 10 15 2 0 4
-7 4 -15z m2820 5 c0 -5 -5 -10 -11 -10 -5 0 -7 5 -4 10 3 6 8 10 11 10 2 0 4
-4 4 -10z m-2236 -49 c3 -5 -2 -15 -12 -22 -15 -12 -16 -12 -5 2 7 9 10 19 6
22 -3 4 -4 7 0 7 3 0 8 -4 11 -9z m2303 -33 c-3 -8 -6 -5 -6 6 -1 11 2 17 5
13 3 -3 4 -12 1 -19z m-2374 -16 c-6 -15 -4 -15 15 2 12 11 22 16 22 13 0 -17
-3 -22 -11 -20 -4 2 -13 -6 -19 -17 -6 -11 -16 -20 -23 -20 -8 0 -8 3 2 9 10
6 10 13 2 28 -10 21 -5 37 10 27 4 -2 5 -12 2 -22z m2431 2 c6 -15 4 -15 -11
-3 -10 7 -20 15 -22 16 -2 2 3 3 11 3 9 0 19 -7 22 -16z m-24 -19 c19 -23 8
-25 -14 -4 -11 11 -15 19 -9 19 6 0 16 -7 23 -15z m-2494 -44 c-4 -5 -1 -11 5
-13 7 -2 6 -8 -3 -16 -12 -10 -14 -8 -12 11 3 27 3 27 10 27 3 0 3 -4 0 -9z
m-597 -116 c0 -5 -4 -3 -9 5 -5 8 -9 22 -9 30 0 16 17 -16 18 -35z m3201 26
c0 12 2 12 9 -1 6 -8 7 -18 4 -23 -6 -10 -43 22 -43 37 0 6 7 2 15 -8 11 -14
15 -16 15 -5z m-2640 5 c0 -3 -4 -8 -10 -11 -5 -3 -10 -1 -10 4 0 6 5 11 10
11 6 0 10 -2 10 -4z m3237 -8 c-2 -7 0 -22 5 -33 9 -19 8 -19 -6 -2 -8 11 -12
25 -9 33 6 17 16 19 10 2z m-3817 -28 c0 -5 -5 -10 -11 -10 -5 0 -7 5 -4 10 3
6 8 10 11 10 2 0 4 -4 4 -10z m590 6 c0 -3 -4 -8 -10 -11 -5 -3 -10 -1 -10 4
0 6 5 11 10 11 6 0 10 -2 10 -4z m2694 -54 c-2 -28 -5 -32 -16 -32 -9 0 -9 3
0 12 16 16 15 33 -1 19 -10 -8 -14 -7 -14 3 0 8 7 13 16 11 9 -1 16 -7 15 -13z
m543 -14 c-3 -8 -6 -5 -6 6 -1 11 2 17 5 13 3 -3 4 -12 1 -19z m38 -8 c3 -5 1
-10 -4 -10 -6 0 -11 5 -11 10 0 6 2 10 4 10 3 0 8 -4 11 -10z m-561 -15 c-4
-8 -10 -15 -15 -15 -4 0 -6 7 -3 15 4 8 10 15 15 15 4 0 6 -7 3 -15z m-2814
-37 c0 -18 -20 -47 -20 -30 0 7 -5 10 -12 6 -7 -4 -8 -3 -4 5 4 6 12 8 18 5 7
-5 9 -1 5 9 -3 10 -2 17 3 17 6 0 10 -6 10 -12z m3403 -23 c-3 -9 -8 -14 -10
-11 -3 3 -2 9 2 15 9 16 15 13 8 -4z m-3980 -28 c3 -8 -1 -14 -8 -14 -7 0 -11
6 -8 14 3 7 6 13 8 13 2 0 5 -6 8 -13z m550 -36 c-18 -19 -19 -19 -19 -1 0 10
5 18 11 17 5 -1 9 5 7 13 -3 11 -1 12 8 3 10 -9 8 -16 -7 -32z m2909 -8 c-3
-16 -7 -22 -10 -15 -4 13 4 42 11 42 2 0 2 -12 -1 -27z m557 -16 c12 -15 12
-17 -3 -11 -9 3 -16 13 -16 22 0 8 1 13 3 11 1 -2 9 -12 16 -22z m-36 -22 c-3
-9 -8 -14 -10 -11 -3 3 -2 9 2 15 9 16 15 13 8 -4z m-1970 -42 c-7 -2 -21 -2
-30 0 -10 3 -4 5 12 5 17 0 24 -2 18 -5z m-2048 -13 c3 -6 -1 -7 -9 -4 -18 7
-21 14 -7 14 6 0 13 -4 16 -10z m511 -41 c2 -18 1 -30 -2 -27 -3 3 -7 20 -9
38 -3 18 -2 30 2 27 3 -4 7 -21 9 -38z m1494 21 c-34 -11 -60 -11 -35 0 11 5
29 8 40 8 16 0 15 -2 -5 -8z m137 4 c-3 -3 -12 -4 -19 -1 -8 3 -5 6 6 6 11 1
17 -2 13 -5z m-322 -14 c-27 -12 -43 -12 -25 0 8 5 22 9 30 9 10 0 8 -3 -5 -9z
m72 4 c-3 -3 -12 -4 -19 -1 -8 3 -5 6 6 6 11 1 17 -2 13 -5z m1673 -18 c0 -3
-4 -8 -10 -11 -5 -3 -10 -1 -10 4 0 6 5 11 10 11 6 0 10 -2 10 -4z m-3570 -36
c0 -5 -2 -10 -4 -10 -3 0 -8 5 -11 10 -3 6 -1 10 4 10 6 0 11 -4 11 -10z
m2396 -22 c4 -6 -2 -5 -14 1 -31 17 -49 13 -26 -5 18 -15 18 -15 0 -6 -11 5
-21 17 -22 25 -2 13 3 13 27 5 16 -5 32 -14 35 -20z m1711 10 c-3 -8 -6 -5 -6
6 -1 11 2 17 5 13 3 -3 4 -12 1 -19z m-2377 -2 c0 -2 -11 -6 -25 -8 -13 -3
-22 -1 -19 3 5 9 44 13 44 5z m-1223 -48 c-3 -7 -5 -2 -5 12 0 14 2 19 5 13 2
-7 2 -19 0 -25z m3086 7 c-7 -21 -12 -19 -10 4 0 11 5 18 9 15 4 -3 5 -11 1
-19z m-1636 9 c-3 -3 -12 -4 -19 -1 -8 3 -5 6 6 6 11 1 17 -2 13 -5z m43 -4
c8 -5 11 -10 5 -10 -5 0 -17 5 -25 10 -8 5 -10 10 -5 10 6 0 17 -5 25 -10z
m225 -8 c-3 -3 -11 0 -18 7 -9 10 -8 11 6 5 10 -3 15 -9 12 -12z m-25 -9 c0
-3 -6 -3 -13 0 -8 3 -20 1 -28 -4 -12 -7 -12 -9 1 -10 8 -1 18 -1 23 0 4 0 7
-3 7 -7 0 -5 11 -14 24 -20 19 -8 26 -8 30 1 2 7 5 4 5 -7 1 -13 6 -17 21 -13
10 3 18 2 17 -2 -2 -6 24 -34 56 -60 15 -12 17 -12 11 3 -4 9 -1 16 6 16 8 0
11 -9 7 -25 -3 -20 -1 -25 12 -23 10 2 15 12 14 28 -2 22 -2 23 6 5 6 -14 4
-25 -7 -37 -14 -17 -10 -23 11 -19 5 1 6 -3 3 -8 -3 -5 6 -29 20 -53 14 -23
23 -35 20 -25 -4 11 -2 16 5 11 6 -3 8 -15 6 -26 -4 -14 -1 -18 8 -14 8 3 17
0 21 -6 4 -6 3 -8 -3 -5 -6 4 -13 -2 -16 -13 -3 -11 -1 -18 3 -15 5 3 7 -8 5
-25 -2 -16 0 -32 4 -35 4 -2 7 -28 5 -57 -2 -29 -4 -85 -6 -125 -1 -41 -6 -69
-12 -66 -5 4 -7 -3 -3 -16 3 -13 3 -20 -1 -17 -8 9 -52 -86 -45 -97 3 -6 1 -7
-5 -3 -6 3 -13 2 -16 -3 -4 -5 -2 -12 4 -16 15 -9 2 -25 -15 -18 -20 7 -19 -6
3 -30 17 -20 17 -20 -8 -4 -24 15 -26 14 -57 -13 -29 -26 -33 -40 -11 -40 5 0
7 4 3 9 -3 5 -1 12 4 15 5 4 8 -2 6 -11 -1 -12 -10 -17 -23 -16 -12 2 -56 -11
-99 -28 -65 -27 -89 -31 -162 -31 -95 0 -113 3 -154 20 -16 7 -33 9 -39 6 -7
-4 -8 -2 -4 4 4 7 3 12 -1 12 -5 0 -32 16 -62 35 -29 19 -58 32 -63 28 -7 -4
-8 -1 -3 7 5 9 1 11 -16 6 -13 -3 -18 -3 -11 0 6 3 12 11 12 17 -1 13 -35 57
-44 57 -13 0 -5 -30 12 -40 10 -7 11 -10 2 -7 -7 2 -23 19 -33 37 -13 24 -15
30 -4 21 24 -19 27 1 5 39 -10 19 -17 27 -14 17 3 -10 2 -15 -4 -12 -5 3 -9
18 -8 33 1 39 -14 132 -21 132 -15 0 0 161 22 232 8 26 12 50 8 54 -3 4 -1 4
5 1 6 -3 25 22 43 58 18 35 36 63 40 62 9 -3 71 49 71 59 0 4 -10 -1 -22 -12
l-23 -19 18 21 c12 15 25 20 39 16 16 -4 19 -2 13 8 -5 8 -4 11 2 7 5 -3 30 4
54 17 30 16 69 26 124 30 44 4 91 9 105 12 19 4 22 2 10 -6 -13 -9 -13 -10 0
-9 8 0 29 6 45 13 27 12 55 11 55 -1z m270 13 c0 -3 -4 -8 -10 -11 -5 -3 -10
-1 -10 4 0 6 5 11 10 11 6 0 10 -2 10 -4z m-580 -26 c-24 -15 -36 -11 -14 4
10 8 21 12 24 10 2 -3 -2 -9 -10 -14z m357 4 c-3 -3 -12 -4 -19 -1 -8 3 -5 6
6 6 11 1 17 -2 13 -5z m1363 -69 c0 -5 -5 -3 -10 5 -5 8 -10 20 -10 25 0 6 5
3 10 -5 5 -8 10 -19 10 -25z m540 31 c0 -3 -4 -8 -10 -11 -5 -3 -10 -1 -10 4
0 6 5 11 10 11 6 0 10 -2 10 -4z m-2435 -22 c-15 -11 -15 -13 4 -24 12 -6 19
-16 15 -22 -5 -8 -13 -4 -23 12 -22 32 -22 46 1 46 18 0 18 -1 3 -12z m2402
-21 c-3 -10 -5 -4 -5 12 0 17 2 24 5 18 2 -7 2 -21 0 -30z m-1767 23 c0 -9
-30 -14 -35 -6 -4 6 3 10 14 10 12 0 21 -2 21 -4z m38 -10 c-7 -8 -15 -12 -17
-11 -5 6 10 25 20 25 5 0 4 -6 -3 -14z m193 -30 c1 -6 1 -21 1 -33 -1 -16 3
-20 15 -16 13 5 13 2 -2 -20 -9 -15 -18 -27 -19 -27 -1 0 -1 20 -1 45 1 50 -2
59 -27 68 -10 3 -18 11 -18 17 0 14 50 -19 51 -34z m-1062 -13 c-15 -17 -39
-5 -31 15 6 16 7 15 10 -1 2 -9 7 -15 12 -12 5 3 7 13 4 23 -5 14 -4 14 4 2 8
-10 8 -18 1 -27z m991 -3 c0 -5 -2 -10 -4 -10 -3 0 -8 5 -11 10 -3 6 -1 10 4
10 6 0 11 -4 11 -10z m-2587 -15 c-3 -9 -8 -14 -10 -11 -3 3 -2 9 2 15 9 16
15 13 8 -4z m1740 -17 c-12 -14 -19 -15 -30 -7 -7 6 -13 14 -13 16 0 3 8 -1
17 -8 15 -12 16 -12 10 3 -4 12 -1 16 13 15 18 -1 18 -3 3 -19z m-1213 -44 c0
-3 -7 -1 -15 6 -8 7 -15 17 -15 22 0 5 7 3 15 -6 8 -8 15 -18 15 -22z m988
-11 c-6 -16 -18 -35 -26 -43 -8 -8 -5 4 7 28 24 47 37 57 19 15z m195 -13 c3
-11 2 -18 -3 -15 -4 3 -10 14 -13 25 -3 11 -2 18 3 15 4 -3 10 -14 13 -25z
m-1183 0 c0 -5 -4 -10 -10 -10 -5 0 -10 5 -10 10 0 6 5 10 10 10 6 0 10 -4 10
-10z m2030 -35 c0 -5 -5 -3 -10 5 -5 8 -10 20 -10 25 0 6 5 3 10 -5 5 -8 10
-19 10 -25z m-1047 -10 c-3 -9 -8 -14 -10 -11 -3 3 -2 9 2 15 9 16 15 13 8 -4z
m1237 -29 c0 -26 -6 -18 -14 19 -5 22 -4 26 4 15 5 -8 10 -24 10 -34z m-2766
9 c3 -8 1 -15 -4 -15 -6 0 -10 7 -10 15 0 8 2 15 4 15 2 0 6 -7 10 -15z m1654
-40 c-3 -3 -9 2 -12 12 -6 14 -5 15 5 6 7 -7 10 -15 7 -18z m-1121 -7 c-3 -8
-6 -5 -6 6 -1 11 2 17 5 13 3 -3 4 -12 1 -19z m1156 7 c-3 -9 -8 -14 -10 -11
-3 3 -2 9 2 15 9 16 15 13 8 -4z m1078 -57 c-6 -18 -8 -13 -8 22 0 35 2 40 8
22 5 -12 5 -32 0 -44z m-2784 10 c-3 -7 -5 -2 -5 12 0 14 2 19 5 13 2 -7 2
-19 0 -25z m30 10 c-3 -8 -6 -5 -6 6 -1 11 2 17 5 13 3 -3 4 -12 1 -19z m1640
-10 c-3 -7 -5 -2 -5 12 0 14 2 19 5 13 2 -7 2 -19 0 -25z m2117 -28 c-5 -5
-10 7 -10 28 -2 37 -2 37 8 9 6 -16 6 -33 2 -37z m-3226 7 c15 -16 14 -17 -1
-11 -9 3 -17 10 -17 16 0 5 -4 7 -9 4 -5 -4 -8 2 -6 11 5 28 6 29 12 13 3 -8
13 -23 21 -33z m3187 -16 c-14 -13 -16 -13 -11 -1 3 8 9 24 13 35 7 19 7 19
11 1 2 -10 -4 -26 -13 -35z m-2053 2 c-3 -16 -7 -22 -10 -15 -4 13 4 42 11 42
2 0 2 -12 -1 -27z m-859 0 c-7 -2 -21 -2 -30 0 -10 3 -4 5 12 5 17 0 24 -2 18
-5z m300 0 c-18 -2 -48 -2 -65 0 -18 2 -4 4 32 4 36 0 50 -2 33 -4z m2250 0
c-13 -2 -33 -2 -45 0 -13 2 -3 4 22 4 25 0 35 -2 23 -4z m-2708 -28 c6 -2 -11
-4 -37 -4 -27 -1 -48 3 -48 7 0 7 62 5 85 -3z m308 8 c-13 -2 -33 -2 -45 0
-13 2 -3 4 22 4 25 0 35 -2 23 -4z m235 0 c-27 -2 -69 -2 -95 0 -27 2 -5 3 47
3 52 0 74 -1 48 -3z m225 0 c-7 -2 -19 -2 -25 0 -7 3 -2 5 12 5 14 0 19 -2 13
-5z m1900 0 c-35 -2 -91 -2 -125 0 -35 2 -7 3 62 3 69 0 97 -1 63 -3z m422 -3
c-3 -5 -12 -10 -18 -10 -7 0 -6 4 3 10 19 12 23 12 15 0z m-2732 -17 c-7 -2
-19 -2 -25 0 -7 3 -2 5 12 5 14 0 19 -2 13 -5z m234 1 c-3 -3 -12 -4 -19 -1
-8 3 -5 6 6 6 11 1 17 -2 13 -5z m116 -1 c-13 -2 -33 -2 -45 0 -13 2 -3 4 22
4 25 0 35 -2 23 -4z m1520 0 c-13 -2 -33 -2 -45 0 -13 2 -3 4 22 4 25 0 35 -2
23 -4z m-2896 -105 c-3 -8 -6 -5 -6 6 -1 11 2 17 5 13 3 -3 4 -12 1 -19z
m4290 -10 c-3 -7 -5 -2 -5 12 0 14 2 19 5 13 2 -7 2 -19 0 -25z m-2597 -39 c0
-5 -4 -9 -10 -9 -5 0 -10 7 -10 16 0 8 5 12 10 9 6 -3 10 -10 10 -16z m-241 2
c8 -5 16 -26 18 -48 2 -21 8 -40 14 -41 5 -2 14 -13 20 -24 8 -15 8 -19 0 -14
-15 10 -14 6 8 -37 11 -21 22 -33 26 -27 3 5 3 15 0 20 -3 6 -1 10 4 10 14 0
14 -16 1 -39 -11 -21 22 -64 43 -55 19 7 49 -30 41 -50 -6 -15 -7 -15 -20 1
-7 10 -14 14 -14 9 0 -12 57 -76 63 -70 2 3 17 -10 32 -28 16 -18 32 -32 37
-31 4 2 8 -2 8 -8 0 -5 5 -7 10 -4 6 3 10 -2 10 -11 0 -10 3 -14 8 -10 10 11
9 30 -3 39 -6 5 -4 7 5 4 9 -2 15 -15 14 -30 0 -14 3 -24 7 -21 4 2 10 0 14
-6 12 -20 102 -59 128 -56 15 2 24 0 22 -5 -11 -17 19 -23 173 -36 40 -3 88 1
130 11 37 8 82 18 100 21 18 4 30 10 27 15 -2 4 7 8 21 8 15 0 30 5 34 12 4 6
10 11 14 10 15 -3 126 72 126 86 0 8 6 14 14 14 7 0 20 8 27 18 13 16 13 16
-6 2 -18 -14 -19 -13 -8 1 7 9 10 18 7 21 -3 3 0 9 7 14 7 4 10 3 6 -3 -7 -12
17 -25 27 -16 3 4 6 15 6 25 0 10 6 18 14 18 8 0 18 5 22 12 5 7 2 9 -7 3 -8
-4 -1 4 15 17 26 22 28 26 16 49 -12 22 -12 23 3 11 13 -11 17 -10 26 6 6 11
7 22 4 26 -3 3 -1 6 6 6 8 0 10 8 6 23 -4 15 -3 18 3 9 7 -11 10 -11 15 2 4 9
4 23 0 32 -5 13 -7 13 -14 2 -6 -9 -9 -9 -9 -1 0 6 4 14 10 18 5 3 8 11 6 18
-1 7 -1 9 1 5 7 -11 33 -10 33 2 0 5 -8 14 -17 20 -17 11 -17 11 0 6 14 -4 19
2 24 26 l6 31 315 -6 c173 -4 375 -7 449 -7 l133 0 0 -54 c0 -29 -7 -93 -16
-142 -10 -49 -17 -99 -17 -111 1 -13 -3 -20 -8 -17 -5 3 -10 -5 -11 -18 -2
-37 -3 -42 -11 -55 -5 -8 -4 -13 2 -13 6 0 2 -9 -10 -21 -12 -12 -19 -29 -16
-40 3 -12 1 -17 -6 -12 -6 4 -8 0 -4 -10 4 -10 2 -17 -4 -17 -6 0 -8 -7 -5
-16 3 -8 2 -13 -3 -10 -12 8 -32 -41 -24 -61 4 -10 2 -14 -4 -10 -5 4 -15 -6
-22 -21 -11 -25 -10 -26 4 -8 8 11 15 16 15 12 0 -11 -40 -60 -40 -50 -1 5
-10 -9 -22 -31 -11 -22 -27 -48 -35 -57 -8 -9 -12 -22 -7 -29 5 -8 3 -10 -5
-5 -8 5 -14 0 -18 -13 -3 -12 -9 -21 -14 -21 -4 0 -6 -14 -4 -30 2 -17 0 -28
-5 -25 -5 3 -6 13 -3 22 4 11 3 14 -5 9 -7 -4 -12 -13 -12 -21 0 -7 -6 -15
-14 -18 -7 -3 -24 -20 -37 -39 l-23 -33 26 23 c19 17 28 20 33 11 5 -7 4 -10
-2 -6 -6 4 -18 -2 -28 -13 -10 -11 -21 -17 -25 -15 -13 8 -110 -103 -104 -118
3 -8 1 -18 -5 -22 -7 -4 -8 1 -4 12 6 17 5 17 -15 -1 -12 -10 -20 -22 -17 -26
2 -4 -2 -7 -10 -7 -8 0 -11 5 -8 11 3 6 -9 -3 -27 -20 -18 -18 -29 -37 -26
-43 12 -19 25 -12 21 10 -3 12 -1 19 2 15 14 -14 10 -37 -8 -47 -14 -7 -19 -7
-17 2 6 23 -19 19 -68 -13 -27 -18 -52 -37 -56 -43 -4 -5 -8 -6 -8 -2 0 9 -61
-31 -72 -47 -4 -6 -4 -14 -1 -20 3 -5 1 -6 -6 -2 -6 4 -8 12 -4 19 3 6 -16 -2
-43 -17 -104 -58 -381 -151 -442 -147 -13 0 -21 -2 -19 -7 3 -4 -16 -6 -41 -4
-31 2 -42 0 -34 -6 21 -14 -324 -4 -425 12 -48 8 -91 12 -95 9 -5 -2 -8 1 -8
6 0 6 -11 11 -25 11 -14 0 -53 10 -86 21 -34 12 -72 21 -85 21 -13 1 -21 4
-18 9 3 5 0 10 -5 10 -20 3 -26 5 -50 18 -22 12 -26 11 -39 -5 -13 -18 -14
-18 -7 5 6 21 5 23 -14 18 -11 -3 -19 -1 -18 4 1 5 -26 25 -61 44 -35 20 -61
30 -57 23 4 -7 1 -6 -7 2 -16 19 -84 70 -93 70 -3 0 -18 11 -33 25 -15 14 -33
23 -39 20 -17 -6 -43 4 -43 17 0 6 7 5 15 -2 23 -19 28 -6 6 14 -17 15 -20 15
-34 1 -22 -21 -34 -19 -13 4 14 15 14 20 3 29 -8 7 -18 8 -22 4 -5 -4 -5 -2
-2 4 3 6 -14 31 -39 55 -27 26 -42 36 -38 24 7 -17 6 -18 -8 -5 -9 8 -14 18
-11 22 5 9 -9 31 -55 83 -25 28 -36 35 -45 26 -6 -6 -16 -11 -21 -11 -6 0 -3
5 7 11 23 14 22 33 -2 26 -14 -3 -18 -1 -14 9 3 8 10 11 17 8 6 -3 4 0 -5 8
-9 7 -17 16 -17 21 -1 6 -28 52 -40 67 -1 2 -6 -1 -10 -7 -5 -7 -11 -3 -19 13
-10 22 -10 24 3 14 15 -13 20 0 5 16 -17 17 -73 129 -91 179 -13 38 -22 49
-36 48 -11 -1 -13 0 -6 3 6 3 12 12 12 20 0 9 -5 12 -11 8 -8 -4 -9 0 -4 15 4
12 2 21 -4 21 -6 0 -8 6 -5 14 3 8 0 24 -6 36 -6 12 -14 34 -16 48 -3 15 -13
72 -24 127 -24 126 -30 193 -19 197 25 8 876 7 888 -1z m-912 -53 c-3 -7 -5
-2 -5 12 0 14 2 19 5 13 2 -7 2 -19 0 -25z m11 -53 c-3 -3 -9 2 -12 12 -6 14
-5 15 5 6 7 -7 10 -15 7 -18z m2036 14 c3 -3 -4 -5 -14 -6 -11 -1 -20 2 -20 7
0 8 25 8 34 -1z m-1041 -19 c-3 -12 -8 -19 -11 -16 -5 6 5 36 12 36 2 0 2 -9
-1 -20z m-1536 -52 c-3 -8 -6 -5 -6 6 -1 11 2 17 5 13 3 -3 4 -12 1 -19z m20
0 c-3 -8 -6 -5 -6 6 -1 11 2 17 5 13 3 -3 4 -12 1 -19z m500 -40 c-2 -13 -4
-3 -4 22 0 25 2 35 4 23 2 -13 2 -33 0 -45z m30 25 c-3 -10 -5 -4 -5 12 0 17
2 24 5 18 2 -7 2 -21 0 -30z m1993 16 c0 -6 -4 -7 -10 -4 -5 3 -10 11 -10 16
0 6 5 7 10 4 6 -3 10 -11 10 -16z m138 -34 c-3 -3 -9 2 -12 12 -6 14 -5 15 5
6 7 -7 10 -15 7 -18z m-934 -44 c-2 -3 -12 3 -22 13 -16 17 -16 18 5 5 12 -7
20 -15 17 -18z m950 -20 c-3 -3 -12 -6 -21 -7 -11 -2 -13 0 -5 8 8 8 8 17 1
32 -8 16 -6 16 10 -4 11 -14 18 -27 15 -29z m-240 21 c3 -5 -1 -9 -9 -9 -8 0
-12 4 -9 9 3 4 7 8 9 8 2 0 6 -4 9 -8z m-574 -68 c0 -3 -13 4 -30 16 -16 12
-30 24 -30 26 0 3 14 -4 30 -16 17 -12 30 -24 30 -26z m-52 -9 c-3 -3 -9 2
-12 12 -6 14 -5 15 5 6 7 -7 10 -15 7 -18z m1859 3 c-3 -8 -6 -5 -6 6 -1 11 2
17 5 13 3 -3 4 -12 1 -19z m-1887 -9 c0 -6 -4 -7 -10 -4 -5 3 -10 11 -10 16 0
6 5 7 10 4 6 -3 10 -11 10 -16z m2417 -11 c-3 -7 -5 -2 -5 12 0 14 2 19 5 13
2 -7 2 -19 0 -25z m-2352 12 c3 -5 1 -10 -4 -10 -6 0 -11 5 -11 10 0 6 2 10 4
10 3 0 8 -4 11 -10z m495 0 c0 -5 -7 -7 -15 -4 -8 4 -15 8 -15 10 0 2 7 4 15
4 8 0 15 -4 15 -10z m57 4 c-3 -3 -12 -4 -19 -1 -8 3 -5 6 6 6 11 1 17 -2 13
-5z m-746 -23 c-9 -6 -10 -11 -2 -15 6 -4 11 -12 11 -19 0 -6 -6 -2 -14 8 -15
21 -12 35 7 35 8 0 8 -3 -2 -9z m2530 -38 c-12 -20 -14 -14 -5 12 4 9 9 14 11
11 3 -2 0 -13 -6 -23z m-2061 1 c0 -2 -19 -4 -42 -3 -35 1 -38 2 -18 8 23 7
60 4 60 -5z m75 5 c-16 -4 -33 -5 -37 -1 -4 4 10 8 30 9 37 1 37 1 7 -8z
m-2128 -31 c-3 -8 -6 -5 -6 6 -1 11 2 17 5 13 3 -3 4 -12 1 -19z m2128 12 c-3
-5 -14 -10 -23 -9 -14 0 -13 2 3 9 27 11 27 11 20 0z m-2145 -35 c0 -5 -5 -3
-10 5 -5 8 -10 20 -10 25 0 6 5 3 10 -5 5 -8 10 -19 10 -25z m2040 25 c-8 -5
-22 -9 -30 -9 -10 0 -8 3 5 9 27 12 43 12 25 0z m-255 -21 c11 -16 1 -19 -13
-3 -7 8 -8 14 -3 14 5 0 13 -5 16 -11z m-1249 -45 c-4 -14 -9 -24 -12 -21 -3
2 -2 17 2 31 3 15 9 25 11 22 3 -3 2 -17 -1 -32z m1904 32 c0 -3 -4 -8 -10
-11 -5 -3 -10 -1 -10 4 0 6 5 11 10 11 6 0 10 -2 10 -4z m-2422 -51 c-3 -3
-13 7 -23 22 l-17 28 23 -22 c12 -12 20 -25 17 -28z m2362 35 c-8 -5 -19 -10
-25 -10 -5 0 -3 5 5 10 8 5 20 10 25 10 6 0 3 -5 -5 -10z m-636 -15 c11 -8 18
-17 15 -19 -2 -2 -15 4 -28 15 -27 22 -15 26 13 4z m646 -5 c-8 -5 -22 -9 -30
-9 -10 0 -8 3 5 9 27 12 43 12 25 0z m-102 -34 c-7 -8 -15 -12 -17 -11 -5 6
10 25 20 25 5 0 4 -6 -3 -14z m-448 0 c0 -2 -7 -7 -16 -10 -8 -3 -12 -2 -9 4
6 10 25 14 25 6z m414 -5 c3 -4 -6 -6 -21 -3 -18 3 -24 1 -19 -7 4 -6 2 -11
-3 -11 -12 0 -14 13 -4 23 9 10 41 9 47 -2z m-101 -18 c-7 -2 -21 -2 -30 0
-10 3 -4 5 12 5 17 0 24 -2 18 -5z m-203 -7 c0 -9 -40 -13 -46 -5 -3 5 6 9 20
9 14 0 26 -2 26 -4z m1575 -25 c3 -5 2 -12 -3 -15 -5 -3 -9 1 -9 9 0 17 3 19
12 6z m-3458 -57 c-3 -3 -12 -4 -19 -1 -8 3 -5 6 6 6 11 1 17 -2 13 -5z m547
-43 c1 -16 -1 -28 -5 -25 -4 2 -7 18 -7 34 1 38 9 32 12 -9z m-507 4 c0 -8 -6
-16 -14 -19 -11 -4 -11 -1 -3 14 13 24 17 25 17 5z m542 -18 c12 -15 12 -17
-3 -11 -9 3 -16 13 -16 22 0 8 1 13 3 11 1 -2 9 -12 16 -22z m2815 -29 c-3 -4
-9 -8 -15 -8 -5 0 -9 4 -9 8 0 5 7 9 15 9 8 0 12 -4 9 -9z m-2807 -14 c-3 -3
-12 -4 -19 -1 -8 3 -5 6 6 6 11 1 17 -2 13 -5z m2805 -23 c-4 -10 -7 -11 -10
-3 -2 7 -8 12 -14 12 -6 0 -8 -7 -4 -15 3 -8 1 -15 -4 -15 -11 0 -14 23 -4 33
13 12 42 3 36 -12z m561 -8 c-3 -7 -9 -10 -14 -7 -14 8 -11 21 5 21 8 0 12 -6
9 -14z m-56 -35 c-3 -8 -6 -5 -6 6 -1 11 2 17 5 13 3 -3 4 -12 1 -19z m-3237
-13 c14 -19 14 -19 -2 -6 -10 7 -18 18 -18 24 0 6 1 8 3 6 1 -2 9 -13 17 -24z
m2690 15 c0 -5 -4 -10 -10 -10 -5 0 -10 5 -10 10 0 6 5 10 10 10 6 0 10 -4 10
-10z m-2716 -16 c3 -8 2 -12 -4 -9 -6 3 -10 10 -10 16 0 14 7 11 14 -7z m2751
-4 c3 -5 1 -10 -4 -10 -6 0 -11 5 -11 10 0 6 2 10 4 10 3 0 8 -4 11 -10z m-71
-36 c4 -9 2 -13 -5 -8 -7 4 -9 0 -5 -14 4 -11 3 -23 -2 -25 -6 -5 -8 25 -3 56
2 12 8 8 15 -9z m-2568 -91 c-7 -7 -26 7 -26 19 0 6 6 6 15 -2 9 -7 13 -15 11
-17z m3074 -8 c0 -5 -5 -3 -10 5 -5 8 -10 20 -10 25 0 6 5 3 10 -5 5 -8 10
-19 10 -25z m-3046 -12 c4 -10 4 -14 0 -10 -4 4 -13 2 -21 -4 -16 -14 -17 -3
0 16 15 18 14 18 21 -2z m-604 -3 c0 -5 -2 -10 -4 -10 -3 0 -8 5 -11 10 -3 6
-1 10 4 10 6 0 11 -4 11 -10z m530 -11 c0 -6 -4 -7 -10 -4 -5 3 -10 11 -10 16
0 6 5 7 10 4 6 -3 10 -11 10 -16z m97 -44 l2 -29 -21 21 c-11 12 -17 26 -13
33 12 19 30 5 32 -25z m2358 -28 c6 -5 3 -7 -6 -4 -9 3 -22 0 -29 -6 -9 -8 -8
-5 1 10 7 12 16 19 19 15 3 -4 10 -11 15 -15z m-2275 -42 c0 -5 -5 -3 -10 5
-9 13 -11 13 -21 0 -9 -13 -10 -12 -5 3 3 10 6 24 6 30 0 6 7 2 15 -9 8 -10
14 -23 15 -29z m-600 -10 c0 -5 -5 -3 -10 5 -5 8 -10 20 -10 25 0 6 5 3 10 -5
5 -8 10 -19 10 -25z m596 -42 c-6 -6 -36 9 -36 18 0 5 9 4 20 -3 10 -7 18 -14
16 -15z m-523 -20 c-4 -10 -9 -11 -19 -2 -18 15 -18 15 5 15 11 0 17 -5 14
-13z m-67 -1 c-3 -2 4 -13 14 -25 11 -11 18 -23 15 -25 -4 -4 -19 10 -42 39
-10 13 -10 16 2 16 8 0 13 -2 11 -5z m54 -51 c0 -9 -7 -3 -15 13 -19 36 -19
47 0 22 8 -11 15 -27 15 -35z m620 24 c10 -12 9 -16 -4 -21 -8 -3 -21 -4 -28
-1 -8 4 -6 6 5 6 9 1 17 6 17 12 0 6 -7 9 -15 5 -8 -3 -15 -1 -15 4 0 15 26
12 40 -5z m2706 -9 c0 -13 -3 -22 -5 -20 -2 2 -11 -2 -20 -9 -14 -10 -14 -10
-3 5 8 9 10 23 6 29 -4 8 -3 9 4 5 7 -4 12 -2 12 3 0 6 2 11 4 11 2 0 3 -11 2
-24z m-2666 -6 c0 -5 -2 -10 -4 -10 -3 0 -8 5 -11 10 -3 6 -1 10 4 10 6 0 11
-4 11 -10z m2622 -38 c8 -8 7 -16 -2 -27 -12 -15 -14 -15 -22 -1 -5 9 -6 21
-3 26 10 16 -7 11 -19 -6 -10 -13 -12 -13 -12 4 0 15 6 19 24 17 13 -1 28 -7
34 -13z m-727 -11 c-3 -6 -16 -16 -28 -22 -20 -10 -20 -9 3 14 25 24 38 28 25
8z m-1775 -31 c-8 -5 -19 -10 -25 -10 -5 0 -3 5 5 10 8 5 20 10 25 10 6 0 3
-5 -5 -10z m1721 -7 c11 -15 11 -16 -1 -6 -11 10 -17 10 -29 0 -14 -11 -14
-10 -2 6 7 9 15 17 16 17 1 0 9 -8 16 -17z m74 -3 c3 -6 -1 -7 -9 -4 -18 7
-21 14 -7 14 6 0 13 -4 16 -10z m642 -30 c2 -25 -14 -35 -32 -20 -16 13 -21
35 -7 26 4 -2 14 -1 22 5 8 5 15 9 15 9 1 0 1 -9 2 -20z m-3117 0 c0 -5 -5
-10 -11 -10 -5 0 -7 5 -4 10 3 6 8 10 11 10 2 0 4 -4 4 -10z m3069 -22 l24
-28 -24 12 c-14 6 -26 20 -26 31 -1 11 -1 18 0 16 1 -2 13 -16 26 -31z m-2284
12 c3 -6 -1 -7 -9 -4 -18 7 -21 14 -7 14 6 0 13 -4 16 -10z m-35 -4 c0 -2 -7
-7 -16 -10 -8 -3 -12 -2 -9 4 6 10 25 14 25 6z m56 -14 c-3 -5 -19 -12 -35
-14 -17 -2 -28 -1 -25 4 3 4 16 8 30 8 13 0 24 5 24 12 0 6 3 9 6 5 3 -3 3
-10 0 -15z m1494 -22 c8 -5 11 -10 5 -10 -5 0 -17 5 -25 10 -8 5 -10 10 -5 10
6 0 17 -5 25 -10z m753 -23 c-32 -39 -97 -96 -104 -92 -10 7 -40 -30 -32 -39
4 -4 -1 -4 -11 0 -15 6 -17 4 -11 -7 5 -8 4 -11 0 -6 -5 4 -10 22 -11 39 -2
23 0 28 6 18 9 -14 14 -7 11 13 -1 5 3 5 9 2 8 -5 6 -13 -6 -26 -9 -10 -13
-19 -7 -19 16 0 44 36 36 45 -5 5 -1 4 9 -3 19 -15 26 -7 23 25 -1 12 2 20 7
17 4 -3 8 -1 8 5 0 13 55 42 64 34 3 -4 6 1 6 11 0 10 5 14 11 11 7 -5 4 -14
-8 -28z m-2136 -9 c-3 -8 -6 -5 -6 6 -1 11 2 17 5 13 3 -3 4 -12 1 -19z m2056
7 c-3 -9 -8 -14 -10 -11 -3 3 -2 9 2 15 9 16 15 13 8 -4z m-822 -9 c-7 -8 -26
-19 -43 -25 -37 -13 -32 -6 14 19 42 23 43 23 29 6z m4 -26 c-3 -5 -12 -10
-18 -10 -7 0 -6 4 3 10 19 12 23 12 15 0z m-1230 -18 c-3 -3 -11 0 -18 7 -9
10 -8 11 6 5 10 -3 15 -9 12 -12z m45 8 c0 -5 -5 -10 -11 -10 -5 0 -7 5 -4 10
3 6 8 10 11 10 2 0 4 -4 4 -10z m40 -10 c0 -5 -8 -10 -17 -10 -15 0 -16 2 -3
10 19 12 20 12 20 0z m47 4 c-3 -3 -12 -4 -19 -1 -8 3 -5 6 6 6 11 1 17 -2 13
-5z m-877 -29 c0 -1 -11 -5 -25 -7 -20 -4 -23 -2 -14 8 8 10 39 10 39 -1z
m1105 -24 c26 -6 31 -9 15 -9 -14 -1 -43 3 -65 7 -26 6 -31 9 -15 9 14 1 43
-3 65 -7z m495 -5 c0 -2 -7 -7 -16 -10 -8 -3 -12 -2 -9 4 6 10 25 14 25 6z
m137 -2 c-3 -3 -12 -4 -19 -1 -8 3 -5 6 6 6 11 1 17 -2 13 -5z m-1717 -20 c0
-8 -4 -12 -10 -9 -5 3 -10 10 -10 16 0 5 5 9 10 9 6 0 10 -7 10 -16z m49 -21
c9 -7 23 -12 31 -13 13 0 13 1 0 10 -8 5 -10 10 -5 10 6 0 17 -5 25 -10 11 -7
11 -10 2 -10 -7 0 -10 -4 -7 -10 4 -6 -4 -6 -22 1 -37 14 -53 28 -52 48 0 13
2 14 6 1 4 -8 13 -20 22 -27z m1060 21 c2 -2 -14 -4 -37 -4 -22 0 -44 5 -47
10 -6 10 73 3 84 -6z m124 9 c-7 -2 -21 -2 -30 0 -10 3 -4 5 12 5 17 0 24 -2
18 -5z m194 1 c-3 -3 -12 -4 -19 -1 -8 3 -5 6 6 6 11 1 17 -2 13 -5z m-50 -10
c-3 -3 -12 -4 -19 -1 -8 3 -5 6 6 6 11 1 17 -2 13 -5z m160 0 c-3 -3 -12 -4
-19 -1 -8 3 -5 6 6 6 11 1 17 -2 13 -5z m183 2 c0 -2 -11 -6 -25 -8 -13 -3
-22 -1 -19 3 5 9 44 13 44 5z m-1595 -104 c-5 -5 -45 22 -45 31 0 4 11 0 24
-10 13 -10 23 -19 21 -21z m33 -3 c-2 -6 3 -14 11 -17 8 -2 11 0 7 6 -3 6 -2
13 3 16 10 7 9 -20 -2 -30 -9 -9 -38 16 -31 27 7 13 14 11 12 -2z m2312 7 c0
-2 -7 -7 -16 -10 -8 -3 -12 -2 -9 4 6 10 25 14 25 6z m85 -16 c3 -6 -1 -7 -9
-4 -18 7 -21 14 -7 14 6 0 13 -4 16 -10z m-50 -7 c-11 -3 -24 -9 -29 -14 -16
-15 -29 -10 -16 6 7 8 24 14 39 14 20 -1 22 -2 6 -6z m-2209 -65 c-10 -6 -22
-6 -26 -2 -5 5 3 10 18 11 22 1 24 0 8 -9z m54 -14 c0 -2 -9 -4 -21 -4 -11 0
-18 4 -14 10 5 8 35 3 35 -6z m-3 -28 c0 -8 -6 -12 -15 -9 -11 5 -11 7 0 14 7
5 13 9 14 9 0 0 1 -6 1 -14z m123 -30 c0 -2 -7 -7 -16 -10 -8 -3 -12 -2 -9 4
6 10 25 14 25 6z m15 -16 c-3 -5 -12 -10 -18 -10 -7 0 -6 4 3 10 19 12 23 12
15 0z m1725 0 c0 -5 -2 -10 -4 -10 -3 0 -8 5 -11 10 -3 6 -1 10 4 10 6 0 11
-4 11 -10z m40 -4 c0 -2 -7 -7 -16 -10 -8 -3 -12 -2 -9 4 6 10 25 14 25 6z
m-77 -34 c-10 -10 -20 -14 -22 -9 -2 5 3 13 10 18 24 15 30 10 12 -9z m-1543
-27 c0 -7 -30 -13 -34 -7 -3 4 4 9 15 9 10 1 19 0 19 -2z m123 -20 c0 -6 -7
-11 -16 -11 -16 -2 -16 -1 -1 3 14 4 15 7 3 15 -11 7 -11 9 -1 6 8 -2 14 -8
15 -13z m968 -75 c-13 -11 -31 -20 -40 -20 -9 0 0 8 19 19 46 24 50 24 21 1z
m-704 4 c-3 -3 -12 -4 -19 -1 -8 3 -5 6 6 6 11 1 17 -2 13 -5z m666 -1 c-7 -2
-21 -2 -30 0 -10 3 -4 5 12 5 17 0 24 -2 18 -5z m-626 -9 c-3 -3 -12 -4 -19
-1 -8 3 -5 6 6 6 11 1 17 -2 13 -5z m96 -11 c-7 -2 -19 -2 -25 0 -7 3 -2 5 12
5 14 0 19 -2 13 -5z m474 -9 c-3 -3 -12 -4 -19 -1 -8 3 -5 6 6 6 11 1 17 -2
13 -5z"/>
<path d="M2582 2753 c6 -7 13 -11 16 -8 3 3 11 0 19 -6 8 -7 13 -8 13 -1 0 14
-22 29 -42 29 -14 0 -15 -3 -6 -14z"/>
<path d="M1930 2040 c0 -5 5 -10 10 -10 6 0 10 5 10 10 0 6 -4 10 -10 10 -5 0
-10 -4 -10 -10z"/>
<path d="M4765 1790 c-3 -5 -1 -10 4 -10 6 0 11 5 11 10 0 6 -2 10 -4 10 -3 0
-8 -4 -11 -10z"/>
<path d="M4690 1710 c0 -5 5 -10 10 -10 6 0 10 5 10 10 0 6 -4 10 -10 10 -5 0
-10 -4 -10 -10z"/>
<path d="M4600 1620 c-28 -29 -35 -40 -26 -40 6 0 66 60 66 66 0 10 -13 2 -40
-26z"/>
<path d="M5230 4650 c0 -5 5 -10 11 -10 5 0 7 5 4 10 -3 6 -8 10 -11 10 -2 0
-4 -4 -4 -10z"/>
<path d="M1509 4543 c-13 -16 -12 -17 4 -4 16 13 21 21 13 21 -2 0 -10 -8 -17
-17z"/>
<path d="M5243 1694 c3 -3 -3 -14 -14 -25 -19 -19 -25 -39 -11 -39 4 0 12 10
17 23 6 12 17 21 25 19 11 -3 11 0 0 12 -7 9 -15 16 -18 16 -3 0 -3 -3 1 -6z"/>
<path d="M4789 1183 c-13 -16 -12 -17 4 -4 9 7 17 15 17 17 0 8 -8 3 -21 -13z"/>
<path d="M2443 1144 c0 -16 13 -19 21 -5 3 5 0 11 -7 14 -8 3 -14 -1 -14 -9z"/>
<path d="M4693 1109 c-13 -13 -6 -39 9 -39 6 0 8 6 5 14 -3 7 0 19 6 25 6 6 7
11 1 11 -5 0 -15 -5 -21 -11z"/>
<path d="M4929 1283 c-13 -16 -12 -17 4 -4 9 7 17 15 17 17 0 8 -8 3 -21 -13z"/>
<path d="M1620 1040 c-9 -6 -10 -10 -3 -10 6 0 15 5 18 10 8 12 4 12 -15 0z"/>
</g>
</svg>
